STARTFONT 2.1
COMMENT
COMMENT Converted from OpenType font "CircularStd-Bold.otf" by "otf2bdf 3.0".
COMMENT
FONT -FreeType-Circular Std Bold-Medium-R-Normal--28-200-100-100-P-146-ISO10646-1
SIZE 20 100 100
FONTBOUNDINGBOX 44 31 -1 -6
STARTPROPERTIES 19
FOUNDRY "FreeType"
FAMILY_NAME "Circular Std Bold"
WEIGHT_NAME "Medium"
SLANT "R"
SETWIDTH_NAME "Normal"
ADD_STYLE_NAME ""
PIXEL_SIZE 28
POINT_SIZE 200
RESOLUTION_X 100
RESOLUTION_Y 100
SPACING "P"
AVERAGE_WIDTH 146
CHARSET_REGISTRY "ISO10646"
CHARSET_ENCODING "1"
FONT_ASCENT 27
FONT_DESCENT 7
COPYRIGHT "Generated in 2013 by FontLab Studio. Copyright info pending."
_OTF_FONTFILE "CircularStd-Bold.otf"
_OTF_PSNAME "CircularStd-Bold"
ENDPROPERTIES
CHARS 332
STARTCHAR 0000
ENCODING 0
SWIDTH 0 0
DWIDTH 0 0
BBX 0 0 0 0
BITMAP
ENDCHAR
STARTCHAR 000D
ENCODING 13
SWIDTH 252 0
DWIDTH 7 0
BBX 0 0 0 0
BITMAP
ENDCHAR
STARTCHAR 0020
ENCODING 32
SWIDTH 252 0
DWIDTH 7 0
BBX 0 0 0 0
BITMAP
ENDCHAR
STARTCHAR 0021
ENCODING 33
SWIDTH 324 0
DWIDTH 9 0
BBX 5 20 2 0
BITMAP
F8
F8
78
78
78
78
70
70
70
70
70
70
70
70
00
00
70
F8
78
70
ENDCHAR
STARTCHAR 0022
ENCODING 34
SWIDTH 396 0
DWIDTH 11 0
BBX 9 8 1 10
BITMAP
6380
F780
F780
F780
F380
6300
6300
6300
ENDCHAR
STARTCHAR 0023
ENCODING 35
SWIDTH 756 0
DWIDTH 21 0
BBX 18 18 1 0
BITMAP
038700
038700
038E00
038E00
3FFFC0
3FFFC0
3FFFC0
071C00
061C00
0E1C00
0E1C00
FFFF80
FFFF80
FFFF80
1C3800
1C3800
1C7000
1C7000
ENDCHAR
STARTCHAR 0024
ENCODING 36
SWIDTH 612 0
DWIDTH 17 0
BBX 14 24 1 -3
BITMAP
0380
0380
0380
0FE0
1FF0
3FF8
7C7C
783C
7800
7C00
7F80
3FF0
1FF8
03FC
007C
F03C
F03C
7C3C
7FF8
3FF0
0FE0
0380
0380
0380
ENDCHAR
STARTCHAR 0025
ENCODING 37
SWIDTH 864 0
DWIDTH 24 0
BBX 22 18 1 0
BITMAP
1E01E0
7F01C0
7F8380
E38700
E18F00
E38E00
7F9C00
7F3C00
1E3800
0071E0
00E3F0
00E7F8
01C61C
038E1C
078E1C
0707F8
0E03F0
1E01E0
ENDCHAR
STARTCHAR 0026
ENCODING 38
SWIDTH 720 0
DWIDTH 20 0
BBX 17 20 2 0
BITMAP
0F8000
3FC000
3FE000
78F000
70F000
78F000
78F000
3FE000
3FC100
1F8100
3F8300
7FC700
FBEF00
F1FE00
F0FC00
F07C00
F9FE00
7FFF00
3FCF00
1F0780
ENDCHAR
STARTCHAR 0027
ENCODING 39
SWIDTH 216 0
DWIDTH 6 0
BBX 4 8 1 10
BITMAP
60
F0
F0
F0
F0
60
60
60
ENDCHAR
STARTCHAR 0028
ENCODING 40
SWIDTH 324 0
DWIDTH 9 0
BBX 8 28 1 -5
BITMAP
02
07
0F
1E
1C
3C
38
78
70
70
70
E0
E0
E0
E0
E0
F0
F0
70
70
78
38
3C
1C
1E
0F
07
02
ENDCHAR
STARTCHAR 0029
ENCODING 41
SWIDTH 324 0
DWIDTH 9 0
BBX 8 28 0 -5
BITMAP
20
70
F0
78
3C
1C
1E
0E
0E
0F
07
07
07
07
07
07
07
07
0F
0E
0E
1E
1C
3C
78
70
E0
20
ENDCHAR
STARTCHAR 002A
ENCODING 42
SWIDTH 468 0
DWIDTH 13 0
BBX 11 11 1 9
BITMAP
0E00
0E00
0E00
EFC0
FFE0
FFC0
1F00
3F00
7B80
7380
1100
ENDCHAR
STARTCHAR 002B
ENCODING 43
SWIDTH 576 0
DWIDTH 16 0
BBX 14 14 1 1
BITMAP
0380
0380
0380
0380
0380
FFFC
FFFC
FFFC
0380
0380
0380
0380
0380
0380
ENDCHAR
STARTCHAR 002C
ENCODING 44
SWIDTH 324 0
DWIDTH 9 0
BBX 5 10 2 -5
BITMAP
70
F8
F8
F8
78
18
30
70
E0
C0
ENDCHAR
STARTCHAR 002D
ENCODING 45
SWIDTH 396 0
DWIDTH 11 0
BBX 8 3 1 7
BITMAP
FF
FF
FF
ENDCHAR
STARTCHAR 002E
ENCODING 46
SWIDTH 324 0
DWIDTH 9 0
BBX 5 5 2 0
BITMAP
70
F8
F8
F8
70
ENDCHAR
STARTCHAR 002F
ENCODING 47
SWIDTH 468 0
DWIDTH 13 0
BBX 13 20 0 0
BITMAP
0038
0070
0070
00E0
00E0
01C0
01C0
0380
0380
0780
0700
0F00
0E00
1E00
1C00
3C00
3800
7800
7000
F000
ENDCHAR
STARTCHAR 0030
ENCODING 48
SWIDTH 612 0
DWIDTH 17 0
BBX 15 18 1 0
BITMAP
07E0
1FF0
3FF8
7EFC
783C
781E
F01E
F01E
F01E
F01E
F01E
F01E
781E
783C
7EFC
3FF8
1FF0
07C0
ENDCHAR
STARTCHAR 0031
ENCODING 49
SWIDTH 396 0
DWIDTH 11 0
BBX 8 18 1 0
BITMAP
07
0F
1F
FF
FF
FF
0F
0F
0F
0F
0F
0F
0F
0F
0F
0F
0F
0F
ENDCHAR
STARTCHAR 0032
ENCODING 50
SWIDTH 540 0
DWIDTH 15 0
BBX 13 18 1 0
BITMAP
0F80
3FE0
7FF0
7DF8
F078
F078
F078
0078
00F0
03F0
0FC0
1F80
3E00
7C00
7800
FFF8
FFF8
FFF8
ENDCHAR
STARTCHAR 0033
ENCODING 51
SWIDTH 540 0
DWIDTH 15 0
BBX 13 18 1 0
BITMAP
FFF8
FFF8
FFF8
00F0
01E0
07C0
0F80
1FC0
0FF0
07F8
0078
0078
E038
F078
F8F8
7FF0
3FE0
0F80
ENDCHAR
STARTCHAR 0034
ENCODING 52
SWIDTH 612 0
DWIDTH 17 0
BBX 15 18 1 0
BITMAP
01F0
03F0
03F0
07F0
0FF0
1EF0
1EF0
3CF0
78F0
F0F0
F0F0
FFFE
FFFE
FFFE
00F0
00F0
00F0
00F0
ENDCHAR
STARTCHAR 0035
ENCODING 53
SWIDTH 540 0
DWIDTH 15 0
BBX 14 18 1 0
BITMAP
3FF8
3FF8
3FF8
3800
7800
7800
77C0
7FF0
FFF8
38F8
0078
003C
F03C
F078
F8F8
7FF0
3FE0
0FC0
ENDCHAR
STARTCHAR 0036
ENCODING 54
SWIDTH 576 0
DWIDTH 16 0
BBX 14 18 1 0
BITMAP
01F8
07FC
1FF8
3F08
3C00
7800
73E0
FFF8
FFFC
FC7C
F83C
F01C
F01C
783C
7C7C
3FF8
1FF0
07C0
ENDCHAR
STARTCHAR 0037
ENCODING 55
SWIDTH 504 0
DWIDTH 14 0
BBX 14 18 0 0
BITMAP
FFFC
FFFC
FFFC
0078
00F0
01F0
01E0
03C0
03C0
0780
0780
0F00
0F00
1E00
1E00
1E00
1E00
1E00
ENDCHAR
STARTCHAR 0038
ENCODING 56
SWIDTH 576 0
DWIDTH 16 0
BBX 14 18 1 0
BITMAP
0FC0
3FF0
7FF8
78F8
F078
F038
7878
3FF0
1FE0
3FF0
7878
F038
F03C
F03C
F878
7FF8
3FF0
0FC0
ENDCHAR
STARTCHAR 0039
ENCODING 57
SWIDTH 576 0
DWIDTH 16 0
BBX 14 18 1 0
BITMAP
0FC0
3FE0
7FF0
78F8
F078
F03C
F03C
F07C
F8FC
7FFC
3FFC
0FBC
0038
0078
63F0
7FF0
7FC0
3F00
ENDCHAR
STARTCHAR 003A
ENCODING 58
SWIDTH 324 0
DWIDTH 9 0
BBX 5 14 2 0
BITMAP
70
F8
F8
F8
70
00
00
00
00
70
F8
F8
F8
70
ENDCHAR
STARTCHAR 003B
ENCODING 59
SWIDTH 324 0
DWIDTH 9 0
BBX 5 18 2 -5
BITMAP
70
F8
F8
F8
70
00
00
00
00
00
F0
F8
F8
F8
18
30
70
E0
ENDCHAR
STARTCHAR 003C
ENCODING 60
SWIDTH 504 0
DWIDTH 14 0
BBX 12 15 1 1
BITMAP
0010
0070
01F0
07F0
1FC0
7F00
FC00
F000
FC00
7F00
1FC0
07F0
01F0
0070
0010
ENDCHAR
STARTCHAR 003D
ENCODING 61
SWIDTH 612 0
DWIDTH 17 0
BBX 13 8 2 4
BITMAP
FFF8
FFF8
FFF8
0000
0000
FFF8
FFF8
FFF8
ENDCHAR
STARTCHAR 003E
ENCODING 62
SWIDTH 504 0
DWIDTH 14 0
BBX 12 15 1 1
BITMAP
8000
E000
F800
FE00
3F80
0FE0
03F0
00F0
03F0
0FE0
3F80
FE00
F800
E000
8000
ENDCHAR
STARTCHAR 003F
ENCODING 63
SWIDTH 540 0
DWIDTH 15 0
BBX 13 20 1 0
BITMAP
0F80
3FE0
7FF0
F8F0
F078
F078
E078
00F0
01F0
03E0
07C0
0700
0F00
0E00
0000
0000
0F00
0F00
0F00
0600
ENDCHAR
STARTCHAR 0040
ENCODING 64
SWIDTH 828 0
DWIDTH 23 0
BBX 21 21 1 -1
BITMAP
00FE00
07FF80
0FFFC0
1E01E0
380070
787B70
71FF38
63FF38
E38738
E70638
E70638
E70E38
E70E70
E3FFF0
73F7E0
71E380
380000
3C0080
1F0380
0FFF80
03FF00
ENDCHAR
STARTCHAR 0041
ENCODING 65
SWIDTH 720 0
DWIDTH 20 0
BBX 20 20 0 0
BITMAP
00F000
01F800
01F800
01FC00
03FC00
03FC00
079E00
079E00
071E00
0F0F00
0F0F00
1E0F80
1FFF80
1FFF80
3FFFC0
3FFFC0
3C03C0
7801E0
7801E0
F801F0
ENDCHAR
STARTCHAR 0042
ENCODING 66
SWIDTH 612 0
DWIDTH 17 0
BBX 14 20 2 0
BITMAP
FFC0
FFF0
FFF8
F0F8
F078
F038
F078
F078
FFF0
FFE0
FFF8
F078
F03C
F03C
F03C
F03C
F07C
FFF8
FFF0
FFE0
ENDCHAR
STARTCHAR 0043
ENCODING 67
SWIDTH 756 0
DWIDTH 21 0
BBX 19 20 1 0
BITMAP
01F800
07FF00
1FFF80
3FFFC0
3E07C0
7C03E0
7801E0
F00000
F00000
F00000
F00000
F00000
F80000
7801E0
7C01E0
3E07C0
3FFFC0
1FFF80
07FF00
01F800
ENDCHAR
STARTCHAR 0044
ENCODING 68
SWIDTH 720 0
DWIDTH 20 0
BBX 17 20 2 0
BITMAP
FFE000
FFF800
FFFC00
FFFE00
F03F00
F00F00
F00F80
F00780
F00780
F00780
F00780
F00780
F00780
F00F80
F00F00
F01F00
FFFE00
FFFC00
FFF800
FFE000
ENDCHAR
STARTCHAR 0045
ENCODING 69
SWIDTH 576 0
DWIDTH 16 0
BBX 13 20 2 0
BITMAP
FFF8
FFF8
FFF8
FFF8
F000
F000
F000
F000
FFF0
FFF0
FFF0
F000
F000
F000
F000
F000
FFF8
FFF8
FFF8
FFF8
ENDCHAR
STARTCHAR 0046
ENCODING 70
SWIDTH 576 0
DWIDTH 16 0
BBX 13 20 2 0
BITMAP
FFF8
FFF8
FFF8
FFF8
F000
F000
F000
F000
FFF0
FFF0
FFF0
FFF0
F000
F000
F000
F000
F000
F000
F000
F000
ENDCHAR
STARTCHAR 0047
ENCODING 71
SWIDTH 792 0
DWIDTH 22 0
BBX 19 20 1 0
BITMAP
01FC00
07FF00
1FFF80
3FFFC0
3E07E0
7C01E0
7801C0
F00000
F00000
F00000
F07FE0
F07FE0
F07FE0
7801E0
7C01E0
3E03E0
3FFFE0
1FFFE0
07FEE0
01F8E0
ENDCHAR
STARTCHAR 0048
ENCODING 72
SWIDTH 756 0
DWIDTH 21 0
BBX 17 20 2 0
BITMAP
F00780
F00780
F00780
F00780
F00780
F00780
F00780
F00780
FFFF80
FFFF80
FFFF80
FFFF80
F00780
F00780
F00780
F00780
F00780
F00780
F00780
F00780
ENDCHAR
STARTCHAR 0049
ENCODING 73
SWIDTH 288 0
DWIDTH 8 0
BBX 4 20 2 0
BITMAP
F0
F0
F0
F0
F0
F0
F0
F0
F0
F0
F0
F0
F0
F0
F0
F0
F0
F0
F0
F0
ENDCHAR
STARTCHAR 004A
ENCODING 74
SWIDTH 540 0
DWIDTH 15 0
BBX 12 20 1 0
BITMAP
0070
0070
0070
0070
0070
0070
0070
0070
0070
0070
0070
0070
E070
E070
E0F0
F0F0
FFF0
7FE0
3FC0
1F80
ENDCHAR
STARTCHAR 004B
ENCODING 75
SWIDTH 684 0
DWIDTH 19 0
BBX 17 20 2 0
BITMAP
F00F80
F01F00
F03E00
F07C00
F0F800
F1F000
F3E000
F7C000
F78000
FFC000
FFC000
FFE000
FDF000
F8F800
F0F800
F07C00
F03E00
F01E00
F01F00
F00F80
ENDCHAR
STARTCHAR 004C
ENCODING 76
SWIDTH 576 0
DWIDTH 16 0
BBX 13 20 2 0
BITMAP
F000
F000
F000
F000
F000
F000
F000
F000
F000
F000
F000
F000
F000
F000
F000
F000
FFF8
FFF8
FFF8
FFF8
ENDCHAR
STARTCHAR 004D
ENCODING 77
SWIDTH 936 0
DWIDTH 26 0
BBX 22 20 2 0
BITMAP
FC007C
FC00FC
FC00FC
FE00FC
FE01FC
FF01FC
FF03FC
FF03FC
F783BC
F787BC
F3C7BC
F3CF3C
F1CF3C
F1EE3C
F1FE3C
F0FE3C
F0FC3C
F07C3C
F0783C
F0783C
ENDCHAR
STARTCHAR 004E
ENCODING 78
SWIDTH 756 0
DWIDTH 21 0
BBX 17 20 2 0
BITMAP
F80780
FC0780
FE0780
FE0780
FF0780
FF0780
F78780
F7C780
F3C780
F3E780
F1F780
F0F780
F0FF80
F07F80
F03F80
F03F80
F01F80
F01F80
F00F80
F00780
ENDCHAR
STARTCHAR 004F
ENCODING 79
SWIDTH 792 0
DWIDTH 22 0
BBX 20 20 1 0
BITMAP
01FC00
07FF00
1FFF80
3FFFC0
3E07E0
7C01E0
7801F0
F000F0
F000F0
F000F0
F000F0
F000F0
F800F0
7800F0
7C01E0
3E07E0
3FFFC0
1FFF80
07FF00
01F800
ENDCHAR
STARTCHAR 0050
ENCODING 80
SWIDTH 612 0
DWIDTH 17 0
BBX 14 20 2 0
BITMAP
FFC0
FFF0
FFF8
F0FC
F03C
F03C
F03C
F03C
F07C
FFF8
FFF0
FFE0
F000
F000
F000
F000
F000
F000
F000
F000
ENDCHAR
STARTCHAR 0051
ENCODING 81
SWIDTH 792 0
DWIDTH 22 0
BBX 20 21 1 -1
BITMAP
01FC00
07FF00
1FFF80
3FFFC0
3E07E0
7C01E0
7801F0
F000F0
F000F0
F000F0
F000F0
F018F0
F83CF0
781FF0
7C1FE0
3E0FE0
3FFFC0
1FFFE0
07FFF0
01F8F0
000040
ENDCHAR
STARTCHAR 0052
ENCODING 82
SWIDTH 612 0
DWIDTH 17 0
BBX 14 20 2 0
BITMAP
FFE0
FFF0
FFF8
F0FC
F03C
F03C
F03C
F03C
F07C
FFF8
FFF0
FFE0
F3C0
F1E0
F1E0
F0F0
F0F0
F078
F078
F03C
ENDCHAR
STARTCHAR 0053
ENCODING 83
SWIDTH 612 0
DWIDTH 17 0
BBX 15 20 1 0
BITMAP
07E0
1FF0
3FF8
7EFC
783C
7018
7800
7800
7F80
3FF0
1FF8
03FC
003E
201E
F01E
F81E
7E7C
7FFC
1FF0
0FE0
ENDCHAR
STARTCHAR 0054
ENCODING 84
SWIDTH 612 0
DWIDTH 17 0
BBX 17 20 0 0
BITMAP
FFFF80
FFFF80
FFFF80
FFFF80
01E000
01E000
01E000
01E000
01E000
01E000
01E000
01E000
01E000
01E000
01E000
01E000
01E000
01E000
01E000
01E000
ENDCHAR
STARTCHAR 0055
ENCODING 85
SWIDTH 684 0
DWIDTH 19 0
BBX 15 20 2 0
BITMAP
F01E
F01E
F01E
F01E
F01E
F01E
F01E
F01E
F01E
F01E
F01E
F01E
F01E
F01E
F01E
783E
7FFC
3FFC
1FF0
07E0
ENDCHAR
STARTCHAR 0056
ENCODING 86
SWIDTH 684 0
DWIDTH 19 0
BBX 19 20 0 0
BITMAP
F801E0
7803C0
7803C0
3C03C0
3C0780
3C0780
1E0700
1E0F00
1E0F00
0F1E00
0F1E00
0F1E00
07BC00
07BC00
03BC00
03F800
03F800
01F000
01F000
01F000
ENDCHAR
STARTCHAR 0057
ENCODING 87
SWIDTH 1044 0
DWIDTH 29 0
BBX 28 20 0 0
BITMAP
F80F00F0
780F80F0
780F80F0
781F81E0
3C1FC1E0
3C1FC1E0
3C3DC1C0
3C3DE3C0
1E39E3C0
1E79E3C0
1E78F380
1E70F780
0FF0F780
0FF07F80
0FF07F00
07E07F00
07E03F00
07E03E00
07C03E00
03C01E00
ENDCHAR
STARTCHAR 0058
ENCODING 88
SWIDTH 684 0
DWIDTH 19 0
BBX 17 20 1 0
BITMAP
F00F80
F80F00
7C1E00
3C3E00
3E3C00
1E7C00
0F7800
0FF000
07F000
03E000
03E000
07F000
0FF000
0FF800
1E7C00
3E3C00
3C3E00
781F00
F80F00
F00F80
ENDCHAR
STARTCHAR 0059
ENCODING 89
SWIDTH 648 0
DWIDTH 18 0
BBX 17 20 1 0
BITMAP
F00F80
F80F00
781E00
7C1E00
3C3C00
1E3C00
1E7800
0FF000
0FF000
07E000
07E000
03C000
03C000
03C000
03C000
03C000
03C000
03C000
03C000
03C000
ENDCHAR
STARTCHAR 005A
ENCODING 90
SWIDTH 648 0
DWIDTH 18 0
BBX 16 20 1 0
BITMAP
FFFE
FFFE
FFFE
FFFE
003E
007C
00F8
01F0
03E0
03E0
07C0
0F80
1F00
3E00
3E00
7C00
FFFF
FFFF
FFFF
FFFF
ENDCHAR
STARTCHAR 005B
ENCODING 91
SWIDTH 324 0
DWIDTH 9 0
BBX 7 28 2 -5
BITMAP
FE
FE
FE
E0
E0
E0
E0
E0
E0
E0
E0
E0
E0
E0
E0
E0
E0
E0
E0
E0
E0
E0
E0
E0
E0
FE
FE
FE
ENDCHAR
STARTCHAR 005C
ENCODING 92
SWIDTH 468 0
DWIDTH 13 0
BBX 13 20 0 0
BITMAP
F000
7000
7800
3800
3C00
1C00
1E00
0E00
0F00
0700
0780
0380
03C0
01C0
01E0
00E0
00F0
0070
0070
0038
ENDCHAR
STARTCHAR 005D
ENCODING 93
SWIDTH 324 0
DWIDTH 9 0
BBX 7 28 0 -5
BITMAP
FE
FE
FE
1E
1E
1E
1E
1E
1E
1E
1E
1E
1E
1E
1E
1E
1E
1E
1E
1E
1E
1E
1E
1E
1E
FE
FE
FE
ENDCHAR
STARTCHAR 005E
ENCODING 94
SWIDTH 540 0
DWIDTH 15 0
BBX 13 10 1 10
BITMAP
0700
0F80
0F80
1FC0
3DC0
39E0
78E0
70F0
F070
E038
ENDCHAR
STARTCHAR 005F
ENCODING 95
SWIDTH 540 0
DWIDTH 15 0
BBX 14 3 0 -3
BITMAP
FFFC
FFFC
FFFC
ENDCHAR
STARTCHAR 0060
ENCODING 96
SWIDTH 288 0
DWIDTH 8 0
BBX 6 4 1 15
BITMAP
F0
78
3C
1C
ENDCHAR
STARTCHAR 0061
ENCODING 97
SWIDTH 540 0
DWIDTH 15 0
BBX 12 14 1 0
BITMAP
0F80
3FE0
7FF0
78F0
F070
00F0
1FF0
7FF0
7870
F070
F0F0
F9F0
7F70
1E70
ENDCHAR
STARTCHAR 0062
ENCODING 98
SWIDTH 612 0
DWIDTH 17 0
BBX 14 20 2 0
BITMAP
F000
F000
F000
F000
F000
F000
F7C0
FFF0
FFF8
FCF8
F03C
F03C
F03C
F03C
F03C
F03C
F878
FFF8
FFF0
F7C0
ENDCHAR
STARTCHAR 0063
ENCODING 99
SWIDTH 540 0
DWIDTH 15 0
BBX 14 14 1 0
BITMAP
0FC0
1FF0
3FF8
7EF8
F838
F000
F000
F000
F000
F83C
7CF8
3FF0
1FF0
0FC0
ENDCHAR
STARTCHAR 0064
ENCODING 100
SWIDTH 612 0
DWIDTH 17 0
BBX 14 20 1 0
BITMAP
003C
003C
003C
003C
003C
003C
0FBC
3FFC
7FFC
7CFC
F03C
F03C
F03C
F03C
F03C
F03C
787C
7FFC
3FFC
0F9C
ENDCHAR
STARTCHAR 0065
ENCODING 101
SWIDTH 540 0
DWIDTH 15 0
BBX 13 14 1 0
BITMAP
0FC0
1FE0
3FF0
7878
F038
FFF8
FFF8
FFF8
F000
F030
7878
7FF0
3FE0
0FC0
ENDCHAR
STARTCHAR 0066
ENCODING 102
SWIDTH 360 0
DWIDTH 10 0
BBX 9 21 0 0
BITMAP
0780
0F80
1F80
1F00
1E00
1C00
1C00
FF80
FF80
FF80
1C00
1C00
1C00
1C00
1C00
1C00
1C00
1C00
1C00
1C00
1C00
ENDCHAR
STARTCHAR 0067
ENCODING 103
SWIDTH 612 0
DWIDTH 17 0
BBX 14 19 1 -5
BITMAP
0FBC
3FFC
7FFC
7CFC
F03C
F03C
F03C
F03C
F03C
7C7C
7FFC
3FFC
0FBC
003C
F038
F8F8
7FF0
3FE0
0FC0
ENDCHAR
STARTCHAR 0068
ENCODING 104
SWIDTH 576 0
DWIDTH 16 0
BBX 12 20 2 0
BITMAP
F000
F000
F000
F000
F000
F000
F7C0
FFE0
FFF0
F9F0
F0F0
F070
F070
F070
F070
F070
F070
F070
F070
F070
ENDCHAR
STARTCHAR 0069
ENCODING 105
SWIDTH 288 0
DWIDTH 8 0
BBX 4 21 2 0
BITMAP
E0
F0
F0
F0
60
00
00
F0
F0
F0
F0
F0
F0
F0
F0
F0
F0
F0
F0
F0
F0
ENDCHAR
STARTCHAR 006A
ENCODING 106
SWIDTH 288 0
DWIDTH 8 0
BBX 7 26 -1 -5
BITMAP
1C
1E
1E
1E
0C
00
00
1E
1E
1E
1E
1E
1E
1E
1E
1E
1E
1E
1E
1E
1E
1E
3E
FC
FC
F0
ENDCHAR
STARTCHAR 006B
ENCODING 107
SWIDTH 576 0
DWIDTH 16 0
BBX 13 20 2 0
BITMAP
F000
F000
F000
F000
F000
F000
F0F8
F1F0
F3E0
F7C0
FF80
FF00
FF00
FF80
FFC0
F3C0
F3E0
F1F0
F0F0
F0F8
ENDCHAR
STARTCHAR 006C
ENCODING 108
SWIDTH 288 0
DWIDTH 8 0
BBX 4 20 2 0
BITMAP
F0
F0
F0
F0
F0
F0
F0
F0
F0
F0
F0
F0
F0
F0
F0
F0
F0
F0
F0
F0
ENDCHAR
STARTCHAR 006D
ENCODING 109
SWIDTH 900 0
DWIDTH 25 0
BBX 21 14 2 0
BITMAP
F7C3C0
FFEFF0
FFFFF0
F8F8F8
F0F878
F07078
F07078
F07078
F07078
F07078
F07078
F07078
F07078
F07078
ENDCHAR
STARTCHAR 006E
ENCODING 110
SWIDTH 576 0
DWIDTH 16 0
BBX 12 14 2 0
BITMAP
F7C0
FFE0
FFF0
F9F0
F0F0
F070
F070
F070
F070
F070
F070
F070
F070
F070
ENDCHAR
STARTCHAR 006F
ENCODING 111
SWIDTH 576 0
DWIDTH 16 0
BBX 14 14 1 0
BITMAP
0FC0
1FF0
3FF8
7CF8
F83C
F03C
F01C
F01C
F03C
F83C
7CF8
3FF8
1FF0
0FC0
ENDCHAR
STARTCHAR 0070
ENCODING 112
SWIDTH 612 0
DWIDTH 17 0
BBX 14 19 2 -5
BITMAP
F7C0
FFF0
FFF8
FCF8
F03C
F03C
F03C
F03C
F03C
F83C
FCF8
FFF8
FFF0
F7C0
F000
F000
F000
F000
F000
ENDCHAR
STARTCHAR 0071
ENCODING 113
SWIDTH 612 0
DWIDTH 17 0
BBX 14 19 1 -5
BITMAP
0FBC
3FFC
7FFC
7CFC
F03C
F03C
F03C
F03C
F03C
F83C
7CFC
7FFC
3FFC
0FBC
003C
003C
003C
003C
003C
ENDCHAR
STARTCHAR 0072
ENCODING 114
SWIDTH 396 0
DWIDTH 11 0
BBX 8 14 2 0
BITMAP
F7
FF
FF
FF
F8
F0
F0
F0
F0
F0
F0
F0
F0
F0
ENDCHAR
STARTCHAR 0073
ENCODING 115
SWIDTH 468 0
DWIDTH 13 0
BBX 11 14 1 0
BITMAP
1F00
7F80
7FC0
F1E0
F000
FC00
7F80
3FC0
07E0
21E0
F1E0
FFC0
7FC0
1F00
ENDCHAR
STARTCHAR 0074
ENCODING 116
SWIDTH 360 0
DWIDTH 10 0
BBX 9 18 0 0
BITMAP
1E00
1E00
1E00
1E00
FF80
FF80
FF80
1E00
1E00
1E00
1E00
1E00
1E00
1E00
1E00
1F80
0F80
0780
ENDCHAR
STARTCHAR 0075
ENCODING 117
SWIDTH 576 0
DWIDTH 16 0
BBX 12 14 2 0
BITMAP
F070
F070
F070
F070
F070
F070
F070
F070
F070
F0F0
F8F0
FFF0
7FF0
1E70
ENDCHAR
STARTCHAR 0076
ENCODING 118
SWIDTH 540 0
DWIDTH 15 0
BBX 15 14 0 0
BITMAP
F81E
783C
783C
3C3C
3C78
3C78
1E70
1EF0
0EF0
0FE0
0FE0
07C0
07C0
03C0
ENDCHAR
STARTCHAR 0077
ENCODING 119
SWIDTH 828 0
DWIDTH 23 0
BBX 23 14 0 0
BITMAP
F03C1E
787C1C
787C3C
787E3C
38FE38
3CEE38
3CEF78
1DE770
1FC770
1FC7F0
0FC3F0
0F83E0
0F83E0
0781E0
ENDCHAR
STARTCHAR 0078
ENCODING 120
SWIDTH 540 0
DWIDTH 15 0
BBX 13 14 1 0
BITMAP
F078
F8F0
78F0
3DE0
3FC0
1F80
0F80
0F80
1FC0
3FC0
3DE0
79F0
F0F0
F078
ENDCHAR
STARTCHAR 0079
ENCODING 121
SWIDTH 576 0
DWIDTH 16 0
BBX 15 19 0 -5
BITMAP
F81E
781E
783C
3C3C
3C78
1E78
1E70
0FF0
0FE0
07E0
07E0
03C0
03C0
0780
0780
0F00
0F00
1E00
1E00
ENDCHAR
STARTCHAR 007A
ENCODING 122
SWIDTH 468 0
DWIDTH 13 0
BBX 11 14 1 0
BITMAP
FFE0
FFE0
FFE0
03E0
07C0
0780
0F00
1E00
3E00
7C00
F800
FFE0
FFE0
FFE0
ENDCHAR
STARTCHAR 007B
ENCODING 123
SWIDTH 360 0
DWIDTH 10 0
BBX 9 27 1 -4
BITMAP
0380
0780
0F80
1E00
1C00
1C00
1C00
1C00
1C00
1C00
1C00
3C00
F800
F000
F800
3C00
1C00
1C00
1C00
1C00
1C00
1C00
1C00
1E00
0F80
0F80
0380
ENDCHAR
STARTCHAR 007C
ENCODING 124
SWIDTH 288 0
DWIDTH 8 0
BBX 3 27 2 -4
BITMAP
E0
E0
E0
E0
E0
E0
E0
E0
E0
E0
E0
E0
E0
E0
E0
E0
E0
E0
E0
E0
E0
E0
E0
E0
E0
E0
E0
ENDCHAR
STARTCHAR 007D
ENCODING 125
SWIDTH 360 0
DWIDTH 10 0
BBX 9 27 0 -4
BITMAP
E000
F800
FC00
1C00
1C00
1C00
1C00
1C00
1C00
1C00
1E00
0E00
0F80
0380
0F80
0F00
1E00
1C00
1C00
1C00
1C00
1C00
1C00
1C00
FC00
F800
F000
ENDCHAR
STARTCHAR 007E
ENCODING 126
SWIDTH 576 0
DWIDTH 16 0
BBX 14 5 1 6
BITMAP
3E00
7F0C
FFFC
E3FC
01F0
ENDCHAR
STARTCHAR 00A0
ENCODING 160
SWIDTH 252 0
DWIDTH 7 0
BBX 0 0 0 0
BITMAP
ENDCHAR
STARTCHAR 00A1
ENCODING 161
SWIDTH 288 0
DWIDTH 8 0
BBX 4 20 2 -6
BITMAP
70
F0
F0
F0
00
00
70
70
70
70
70
70
F0
F0
F0
F0
F0
F0
F0
F0
ENDCHAR
STARTCHAR 00A2
ENCODING 162
SWIDTH 540 0
DWIDTH 15 0
BBX 13 18 1 0
BITMAP
0700
0700
0700
1FE0
3FF0
7FF8
7878
F000
F000
F000
F000
7838
7CF8
3FF0
1FE0
0780
0700
0700
ENDCHAR
STARTCHAR 00A3
ENCODING 163
SWIDTH 576 0
DWIDTH 16 0
BBX 14 18 2 0
BITMAP
0FC0
1FE0
3FF0
7CF0
7878
7860
7800
7800
FFC0
FFC0
FFC0
1C00
3C00
383C
703C
FFF8
FFF8
FFE0
ENDCHAR
STARTCHAR 00A4
ENCODING 164
SWIDTH 576 0
DWIDTH 16 0
BBX 14 14 1 0
BITMAP
2018
F7FC
7FFC
3FF8
3C78
7838
7038
7038
7838
3C78
3FF8
7FFC
F7FC
2018
ENDCHAR
STARTCHAR 00A5
ENCODING 165
SWIDTH 612 0
DWIDTH 17 0
BBX 15 18 1 0
BITMAP
F01E
781E
783C
3C78
3C78
1EF0
0FE0
7FFC
7FFC
7FFC
0380
7FFC
7FFC
7FFC
0380
0380
0380
0380
ENDCHAR
STARTCHAR 00A6
ENCODING 166
SWIDTH 288 0
DWIDTH 8 0
BBX 3 27 2 -4
BITMAP
E0
E0
E0
E0
E0
E0
E0
E0
E0
E0
E0
00
00
00
00
00
E0
E0
E0
E0
E0
E0
E0
E0
E0
E0
E0
ENDCHAR
STARTCHAR 00A7
ENCODING 167
SWIDTH 576 0
DWIDTH 16 0
BBX 12 26 2 -6
BITMAP
1F80
3FC0
7FE0
F9E0
F0F0
F0C0
F000
FC00
7F00
3FC0
7FE0
E3E0
E0F0
F0F0
FCE0
7FE0
3FC0
1FC0
07E0
01F0
20F0
F0F0
F1E0
7FE0
7FC0
1F00
ENDCHAR
STARTCHAR 00A8
ENCODING 168
SWIDTH 396 0
DWIDTH 11 0
BBX 9 4 1 15
BITMAP
E380
F380
F380
6380
ENDCHAR
STARTCHAR 00A9
ENCODING 169
SWIDTH 828 0
DWIDTH 23 0
BBX 21 20 1 0
BITMAP
01FC00
07FF00
0F0F80
1C01C0
3820E0
71FC70
63FE70
E38E30
E70438
C70038
C70038
E70430
E38E30
63FE70
71FC60
3820E0
1C01C0
0F0F80
07FF00
01F800
ENDCHAR
STARTCHAR 00AA
ENCODING 170
SWIDTH 432 0
DWIDTH 12 0
BBX 8 10 2 8
BITMAP
3C
FF
E7
47
3F
FF
C7
E7
FF
7B
ENDCHAR
STARTCHAR 00AB
ENCODING 171
SWIDTH 540 0
DWIDTH 15 0
BBX 13 11 1 3
BITMAP
1E78
1C70
38E0
79E0
F3C0
E380
F3C0
79E0
38E0
3CF0
1E78
ENDCHAR
STARTCHAR 00AC
ENCODING 172
SWIDTH 576 0
DWIDTH 16 0
BBX 14 8 1 4
BITMAP
FFFC
FFFC
FFFC
001C
001C
001C
001C
001C
ENDCHAR
STARTCHAR 00AD
ENCODING 173
SWIDTH 396 0
DWIDTH 11 0
BBX 8 3 1 7
BITMAP
FF
FF
FF
ENDCHAR
STARTCHAR 00AE
ENCODING 174
SWIDTH 828 0
DWIDTH 23 0
BBX 21 20 1 0
BITMAP
01FC00
07FF00
0F0F80
1C01C0
3800E0
71F860
61FC70
618E30
E18E30
C19E38
C1FC38
E1F838
E1B830
619C70
719C70
3800E0
3C01C0
1F0780
07FF00
01F800
ENDCHAR
STARTCHAR 00AF
ENCODING 175
SWIDTH 324 0
DWIDTH 9 0
BBX 8 3 1 16
BITMAP
FF
FF
FF
ENDCHAR
STARTCHAR 00B0
ENCODING 176
SWIDTH 360 0
DWIDTH 10 0
BBX 9 9 1 9
BITMAP
3C00
7F00
FF00
E380
C380
E380
FF00
7F00
3C00
ENDCHAR
STARTCHAR 00B1
ENCODING 177
SWIDTH 576 0
DWIDTH 16 0
BBX 13 14 2 1
BITMAP
0700
0700
0700
FFF8
FFF8
FFF8
0700
0700
0700
0700
0000
FFF8
FFF8
FFF8
ENDCHAR
STARTCHAR 00B2
ENCODING 178
SWIDTH 396 0
DWIDTH 11 0
BBX 9 10 1 10
BITMAP
3E00
7F00
7700
E300
0700
1F00
3C00
7000
7F80
FF80
ENDCHAR
STARTCHAR 00B3
ENCODING 179
SWIDTH 396 0
DWIDTH 11 0
BBX 9 10 1 10
BITMAP
7F80
7F80
0700
1E00
1F00
0F80
0380
E380
7F80
3E00
ENDCHAR
STARTCHAR 00B4
ENCODING 180
SWIDTH 288 0
DWIDTH 8 0
BBX 6 4 1 15
BITMAP
3C
78
70
E0
ENDCHAR
STARTCHAR 00B5
ENCODING 181
SWIDTH 612 0
DWIDTH 17 0
BBX 13 19 2 -5
BITMAP
F070
F070
F070
F070
F070
F070
F070
F070
F070
F070
F8F0
FFF0
FFF8
FE78
F000
F000
F000
F000
F000
ENDCHAR
STARTCHAR 00B6
ENCODING 182
SWIDTH 684 0
DWIDTH 19 0
BBX 17 25 1 -5
BITMAP
0FFF80
3FFF80
7FFF80
FF9C00
FF9C00
FF9C00
FF9C00
FF9C00
FF9C00
7F9C00
3F9C00
039C00
039C00
039C00
039C00
039C00
039C00
039C00
039C00
039C00
039C00
039C00
039C00
039C00
039C00
ENDCHAR
STARTCHAR 00B7
ENCODING 183
SWIDTH 288 0
DWIDTH 8 0
BBX 4 5 2 6
BITMAP
70
F0
F0
F0
70
ENDCHAR
STARTCHAR 00B8
ENCODING 184
SWIDTH 288 0
DWIDTH 8 0
BBX 7 6 1 -6
BITMAP
30
30
3C
0E
FC
78
ENDCHAR
STARTCHAR 00B9
ENCODING 185
SWIDTH 288 0
DWIDTH 8 0
BBX 5 10 1 10
BITMAP
18
38
F8
F8
18
18
18
18
18
18
ENDCHAR
STARTCHAR 00BA
ENCODING 186
SWIDTH 468 0
DWIDTH 13 0
BBX 10 10 2 8
BITMAP
1E00
7F00
FF80
E1C0
E1C0
E1C0
E1C0
FF80
7F00
3E00
ENDCHAR
STARTCHAR 00BB
ENCODING 187
SWIDTH 540 0
DWIDTH 15 0
BBX 13 11 1 3
BITMAP
E380
F1C0
79E0
38E0
1C70
1E78
1C70
38E0
79E0
71C0
E380
ENDCHAR
STARTCHAR 00BC
ENCODING 188
SWIDTH 792 0
DWIDTH 22 0
BBX 20 18 1 0
BITMAP
1C0380
3C0780
FC0700
FC0E00
1C1C00
1C1C00
1C3800
1C7000
1CF1E0
1CE3E0
01C7E0
03C6E0
038CE0
0718E0
0E1FF0
1E1FF0
1C00E0
3800E0
ENDCHAR
STARTCHAR 00BD
ENCODING 189
SWIDTH 828 0
DWIDTH 23 0
BBX 21 18 1 0
BITMAP
1C0380
3C0780
FC0700
FC0E00
1C1C00
1C3C00
1C3800
1C7000
1CF3E0
1CE7F0
01C638
038638
038070
0701E0
0E03C0
1E0700
1C07F8
3807F8
ENDCHAR
STARTCHAR 00BE
ENCODING 190
SWIDTH 900 0
DWIDTH 25 0
BBX 22 18 1 0
BITMAP
7F80F0
7F80E0
0701C0
1E0380
1F0380
0F8700
038E00
E39E00
7F1C78
3E38F8
0078F8
0071B8
00E338
01C738
03C7FC
0387FC
070038
0F0038
ENDCHAR
STARTCHAR 00BF
ENCODING 191
SWIDTH 504 0
DWIDTH 14 0
BBX 13 20 0 -6
BITMAP
0380
0780
0780
0780
0000
0000
0380
0380
0780
0F00
3F00
7C00
7800
7038
F038
F078
7878
7FF0
3FF0
1FC0
ENDCHAR
STARTCHAR 00C0
ENCODING 192
SWIDTH 720 0
DWIDTH 20 0
BBX 20 25 0 0
BITMAP
07C000
03C000
01E000
007000
000000
00F000
01F800
01F800
01FC00
03FC00
03FC00
079E00
079E00
071E00
0F0F00
0F0F00
1E0F80
1FFF80
1FFF80
3FFFC0
3FFFC0
3C03C0
7801E0
7801E0
F801F0
ENDCHAR
STARTCHAR 00C1
ENCODING 193
SWIDTH 720 0
DWIDTH 20 0
BBX 20 25 0 0
BITMAP
001E00
003C00
007800
00F000
000000
00F000
01F800
01F800
01FC00
03FC00
03FC00
079E00
079E00
071E00
0F0F00
0F0F00
1E0F80
1FFF80
1FFF80
3FFFC0
3FFFC0
3C03C0
7801E0
7801E0
F801F0
ENDCHAR
STARTCHAR 00C2
ENCODING 194
SWIDTH 720 0
DWIDTH 20 0
BBX 20 25 0 0
BITMAP
00F000
01F800
039C00
070E00
000000
00F000
01F800
01F800
01FC00
03FC00
03FC00
079E00
079E00
071E00
0F0F00
0F0F00
1E0F80
1FFF80
1FFF80
3FFFC0
3FFFC0
3C03C0
7801E0
7801E0
F801F0
ENDCHAR
STARTCHAR 00C3
ENCODING 195
SWIDTH 720 0
DWIDTH 20 0
BBX 20 25 0 0
BITMAP
03CE00
07FE00
07FC00
063800
000000
00F000
01F800
01F800
01FC00
03FC00
03FC00
079E00
079E00
071E00
0F0F00
0F0F00
1E0F80
1FFF80
1FFF80
3FFFC0
3FFFC0
3C03C0
7801E0
7801E0
F801F0
ENDCHAR
STARTCHAR 00C4
ENCODING 196
SWIDTH 720 0
DWIDTH 20 0
BBX 20 25 0 0
BITMAP
0E0700
0F0F00
0E0F00
0E0700
000000
00F000
01F800
01F800
01FC00
03FC00
03FC00
079E00
079E00
071E00
0F0F00
0F0F00
1E0F80
1FFF80
1FFF80
3FFFC0
3FFFC0
3C03C0
7801E0
7801E0
F801F0
ENDCHAR
STARTCHAR 00C5
ENCODING 197
SWIDTH 720 0
DWIDTH 20 0
BBX 20 25 0 0
BITMAP
00F000
01F800
039C00
039C00
039C00
01F800
01F800
01F800
01FC00
03FC00
03FC00
079E00
079E00
071E00
0F0F00
0F0F00
1E0F80
1FFF80
1FFF80
3FFFC0
3FFFC0
3C03C0
7801E0
7801E0
F801F0
ENDCHAR
STARTCHAR 00C6
ENCODING 198
SWIDTH 1044 0
DWIDTH 29 0
BBX 27 20 1 0
BITMAP
000FFFE0
001FFFE0
001FFFE0
003FFFE0
007FC000
007BC000
00F3C000
01F3C000
01E3FFC0
03E3FFC0
07C3FFC0
0783C000
0FFFC000
1FFFC000
1FFFC000
3E03C000
3C03FFE0
7803FFE0
F803FFE0
F003FFE0
ENDCHAR
STARTCHAR 00C7
ENCODING 199
SWIDTH 756 0
DWIDTH 21 0
BBX 19 26 1 -6
BITMAP
01F800
07FF00
1FFF80
3FFFC0
3E07C0
7C03E0
7801E0
F80100
F00000
F00000
F00000
F00000
F00000
7801E0
7C01E0
7E03E0
3FFFC0
1FFF80
0FFF00
03FC00
006000
00F000
007800
001C00
01F800
00F000
ENDCHAR
STARTCHAR 00C8
ENCODING 200
SWIDTH 576 0
DWIDTH 16 0
BBX 13 25 2 0
BITMAP
3C00
1E00
0F00
0380
0000
FFF8
FFF8
FFF8
FFF8
F000
F000
F000
F000
FFF0
FFF0
FFF0
F000
F000
F000
F000
F000
FFF8
FFF8
FFF8
FFF8
ENDCHAR
STARTCHAR 00C9
ENCODING 201
SWIDTH 576 0
DWIDTH 16 0
BBX 13 25 2 0
BITMAP
01E0
03C0
0780
0F00
0000
FFF8
FFF8
FFF8
FFF8
F000
F000
F000
F000
FFF0
FFF0
FFF0
F000
F000
F000
F000
F000
FFF8
FFF8
FFF8
FFF8
ENDCHAR
STARTCHAR 00CA
ENCODING 202
SWIDTH 576 0
DWIDTH 16 0
BBX 13 25 2 0
BITMAP
0F80
1FC0
3DE0
78F0
0000
FFF8
FFF8
FFF8
FFF8
F000
F000
F000
F000
FFF0
FFF0
FFF0
F000
F000
F000
F000
F000
FFF8
FFF8
FFF8
FFF8
ENDCHAR
STARTCHAR 00CB
ENCODING 203
SWIDTH 576 0
DWIDTH 16 0
BBX 13 25 2 0
BITMAP
38E0
78F0
78F0
38E0
0000
FFF8
FFF8
FFF8
FFF8
F000
F000
F000
F000
FFF0
FFF0
FFF0
F000
F000
F000
F000
F000
FFF8
FFF8
FFF8
FFF8
ENDCHAR
STARTCHAR 00CC
ENCODING 204
SWIDTH 288 0
DWIDTH 8 0
BBX 7 25 -1 0
BITMAP
F8
78
1C
0E
00
1E
1E
1E
1E
1E
1E
1E
1E
1E
1E
1E
1E
1E
1E
1E
1E
1E
1E
1E
1E
ENDCHAR
STARTCHAR 00CD
ENCODING 205
SWIDTH 288 0
DWIDTH 8 0
BBX 7 25 2 0
BITMAP
1E
3C
78
F0
00
F0
F0
F0
F0
F0
F0
F0
F0
F0
F0
F0
F0
F0
F0
F0
F0
F0
F0
F0
F0
ENDCHAR
STARTCHAR 00CE
ENCODING 206
SWIDTH 288 0
DWIDTH 8 0
BBX 11 25 -1 0
BITMAP
1F00
3F80
73C0
E1E0
0000
1E00
1E00
1E00
1E00
1E00
1E00
1E00
1E00
1E00
1E00
1E00
1E00
1E00
1E00
1E00
1E00
1E00
1E00
1E00
1E00
ENDCHAR
STARTCHAR 00CF
ENCODING 207
SWIDTH 288 0
DWIDTH 8 0
BBX 9 25 0 0
BITMAP
E300
F780
E780
E300
0000
3C00
3C00
3C00
3C00
3C00
3C00
3C00
3C00
3C00
3C00
3C00
3C00
3C00
3C00
3C00
3C00
3C00
3C00
3C00
3C00
ENDCHAR
STARTCHAR 00D0
ENCODING 208
SWIDTH 756 0
DWIDTH 21 0
BBX 20 20 0 0
BITMAP
1FF800
1FFF00
1FFF80
1FFFC0
1E07C0
1E03E0
1E01E0
1E01E0
FFE0F0
FFE0F0
FFE0F0
1E00F0
1E01E0
1E01E0
1E03E0
1E07C0
1FFFC0
1FFF80
1FFF00
1FF800
ENDCHAR
STARTCHAR 00D1
ENCODING 209
SWIDTH 756 0
DWIDTH 21 0
BBX 17 25 2 0
BITMAP
079800
0FF800
0FF800
0C7000
000000
F80780
FC0780
FE0780
FE0780
FF0780
FF0780
F78780
F7C780
F3C780
F3E780
F1F780
F0F780
F0FF80
F07F80
F03F80
F03F80
F01F80
F01F80
F00F80
F00780
ENDCHAR
STARTCHAR 00D2
ENCODING 210
SWIDTH 792 0
DWIDTH 22 0
BBX 20 25 1 0
BITMAP
078000
03C000
01E000
00F000
000000
01FC00
07FF00
1FFF80
3FFFC0
3E07E0
7C01E0
7801F0
F000F0
F000F0
F000F0
F000F0
F000F0
F800F0
7800F0
7C01E0
3E07E0
3FFFC0
1FFF80
07FF00
01F800
ENDCHAR
STARTCHAR 00D3
ENCODING 211
SWIDTH 792 0
DWIDTH 22 0
BBX 20 25 1 0
BITMAP
001F00
003E00
007800
007000
000000
01FC00
07FF00
1FFF80
3FFFC0
3E07E0
7C01E0
7801F0
F000F0
F000F0
F000F0
F000F0
F000F0
F800F0
7800F0
7C01E0
3E07E0
3FFFC0
1FFF80
07FF00
01F800
ENDCHAR
STARTCHAR 00D4
ENCODING 212
SWIDTH 792 0
DWIDTH 22 0
BBX 20 25 1 0
BITMAP
00F000
01F800
03FC00
079E00
000000
01FC00
07FF00
1FFF80
3FFFC0
3E07E0
7C01E0
7801F0
F000F0
F000F0
F000F0
F000F0
F000F0
F800F0
7800F0
7C01E0
3E07E0
3FFFC0
1FFF80
07FF00
01F800
ENDCHAR
STARTCHAR 00D5
ENCODING 213
SWIDTH 792 0
DWIDTH 22 0
BBX 20 25 1 0
BITMAP
01C600
03FE00
03FE00
073C00
000000
01FC00
07FF00
1FFF80
3FFFC0
3E07E0
7C01E0
7801F0
F000F0
F000F0
F000F0
F000F0
F000F0
F800F0
7800F0
7C01E0
3E07E0
3FFFC0
1FFF80
07FF00
01F800
ENDCHAR
STARTCHAR 00D6
ENCODING 214
SWIDTH 792 0
DWIDTH 22 0
BBX 20 25 1 0
BITMAP
0E0300
0F0780
0F0780
0E0700
000000
01FC00
07FF00
1FFF80
3FFFC0
3E07E0
7C01E0
7801F0
F000F0
F000F0
F000F0
F000F0
F000F0
F800F0
7800F0
7C01E0
3E07E0
3FFFC0
1FFF80
07FF00
01F800
ENDCHAR
STARTCHAR 00D7
ENCODING 215
SWIDTH 576 0
DWIDTH 16 0
BBX 13 14 1 1
BITMAP
2010
7038
F878
7CF0
3FE0
1FC0
0F80
0FC0
1FC0
3FE0
7CF0
F878
7038
2010
ENDCHAR
STARTCHAR 00D8
ENCODING 216
SWIDTH 792 0
DWIDTH 22 0
BBX 20 22 1 -1
BITMAP
000040
01F8E0
07FFE0
1FFFC0
3FFFC0
3E07E0
7C0FE0
781FF0
F03CF0
F078F0
F078F0
F0F0F0
F1E0F0
FBC0F0
7F80F0
7F01E0
3F07E0
3FFFC0
3FFF80
7FFF00
79F800
300000
ENDCHAR
STARTCHAR 00D9
ENCODING 217
SWIDTH 684 0
DWIDTH 19 0
BBX 15 25 2 0
BITMAP
1E00
0F00
0780
03C0
0000
F01E
F01E
F01E
F01E
F01E
F01E
F01E
F01E
F01E
F01E
F01E
F01E
F01E
F01E
F01E
783E
7FFC
3FFC
1FF0
07E0
ENDCHAR
STARTCHAR 00DA
ENCODING 218
SWIDTH 684 0
DWIDTH 19 0
BBX 15 25 2 0
BITMAP
00F0
01E0
03C0
0780
0000
F01E
F01E
F01E
F01E
F01E
F01E
F01E
F01E
F01E
F01E
F01E
F01E
F01E
F01E
F01E
783E
7FFC
3FFC
1FF0
07E0
ENDCHAR
STARTCHAR 00DB
ENCODING 219
SWIDTH 684 0
DWIDTH 19 0
BBX 15 25 2 0
BITMAP
07C0
0FE0
1EF0
3C78
0000
F01E
F01E
F01E
F01E
F01E
F01E
F01E
F01E
F01E
F01E
F01E
F01E
F01E
F01E
F01E
783E
7FFC
3FFC
1FF0
07E0
ENDCHAR
STARTCHAR 00DC
ENCODING 220
SWIDTH 684 0
DWIDTH 19 0
BBX 15 25 2 0
BITMAP
1C30
3C78
3C78
1C30
0000
F01E
F01E
F01E
F01E
F01E
F01E
F01E
F01E
F01E
F01E
F01E
F01E
F01E
F01E
F01E
783E
7FFC
3FFC
1FF0
07E0
ENDCHAR
STARTCHAR 00DD
ENCODING 221
SWIDTH 648 0
DWIDTH 18 0
BBX 17 25 1 0
BITMAP
00F800
00F000
01C000
038000
000000
F00F80
F80F00
781E00
7C1E00
3C3C00
1E3C00
1E7800
0FF000
0FF000
07E000
07E000
03C000
03C000
03C000
03C000
03C000
03C000
03C000
03C000
03C000
ENDCHAR
STARTCHAR 00DE
ENCODING 222
SWIDTH 612 0
DWIDTH 17 0
BBX 14 20 2 0
BITMAP
F000
F000
F000
F000
FFE0
FFF0
FFF8
F07C
F03C
F03C
F03C
F03C
F07C
FFF8
FFF0
FFC0
F000
F000
F000
F000
ENDCHAR
STARTCHAR 00DF
ENCODING 223
SWIDTH 612 0
DWIDTH 17 0
BBX 14 20 2 0
BITMAP
0FC0
3FE0
7FF0
78F8
F078
F078
F078
F1F0
F3E0
F3C0
F780
F3E0
F3F8
F1FC
F07C
F01C
F71C
F7FC
F7F8
F1F0
ENDCHAR
STARTCHAR 00E0
ENCODING 224
SWIDTH 540 0
DWIDTH 15 0
BBX 12 19 1 0
BITMAP
3C00
1E00
0E00
0700
0000
0F80
3FE0
7FF0
78F0
F070
00F0
1FF0
7FF0
7870
F070
F0F0
F9F0
7F70
1E70
ENDCHAR
STARTCHAR 00E1
ENCODING 225
SWIDTH 540 0
DWIDTH 15 0
BBX 12 19 1 0
BITMAP
01E0
03C0
0780
0700
0000
0F80
3FE0
7FF0
78F0
F070
00F0
1FF0
7FF0
7870
F070
F0F0
F9F0
7F70
1E70
ENDCHAR
STARTCHAR 00E2
ENCODING 226
SWIDTH 540 0
DWIDTH 15 0
BBX 12 19 1 0
BITMAP
0F80
1F80
1DC0
38E0
0000
0F80
3FE0
7FF0
78F0
F070
00F0
1FF0
7FF0
7870
F070
F0F0
F9F0
7F70
1E70
ENDCHAR
STARTCHAR 00E3
ENCODING 227
SWIDTH 540 0
DWIDTH 15 0
BBX 12 19 1 0
BITMAP
1E60
3FE0
3FE0
31C0
0000
0F80
3FE0
7FF0
78F0
F070
00F0
1FF0
7FF0
7870
F070
F0F0
F9F0
7F70
1E70
ENDCHAR
STARTCHAR 00E4
ENCODING 228
SWIDTH 540 0
DWIDTH 15 0
BBX 12 19 1 0
BITMAP
38E0
39E0
39E0
38C0
0000
0F80
3FE0
7FF0
78F0
F070
00F0
1FF0
7FF0
7870
F070
F0F0
F9F0
7F70
1E70
ENDCHAR
STARTCHAR 00E5
ENCODING 229
SWIDTH 540 0
DWIDTH 15 0
BBX 12 21 1 0
BITMAP
0700
0F80
1980
1980
1F80
0F00
0000
0F80
3FE0
7FF0
78F0
F070
00F0
1FF0
7FF0
7870
F070
F0F0
F9F0
7F70
1E70
ENDCHAR
STARTCHAR 00E6
ENCODING 230
SWIDTH 864 0
DWIDTH 24 0
BBX 22 14 1 0
BITMAP
0F87C0
3FFFF0
7FFFF8
78FC7C
70783C
00FFFC
1FFFFC
7FFFFC
F87000
F07818
F0FC7C
FFFFF8
7FDFF0
1F07C0
ENDCHAR
STARTCHAR 00E7
ENCODING 231
SWIDTH 540 0
DWIDTH 15 0
BBX 13 20 1 -6
BITMAP
0FC0
1FF0
3FF0
7EF8
F838
F020
F000
F000
F000
F038
7C78
7FF8
3FF0
0FC0
0300
0780
03C0
08C0
0FC0
0780
ENDCHAR
STARTCHAR 00E8
ENCODING 232
SWIDTH 540 0
DWIDTH 15 0
BBX 13 19 1 0
BITMAP
3C00
1E00
0F00
0700
0000
0FC0
1FE0
3FF0
7878
F038
FFF8
FFF8
FFF8
F000
F030
7878
7FF0
3FE0
0FC0
ENDCHAR
STARTCHAR 00E9
ENCODING 233
SWIDTH 540 0
DWIDTH 15 0
BBX 13 19 1 0
BITMAP
01E0
01C0
0380
0700
0000
0FC0
1FE0
3FF0
7878
F038
FFF8
FFF8
FFF8
F000
F030
7878
7FF0
3FE0
0FC0
ENDCHAR
STARTCHAR 00EA
ENCODING 234
SWIDTH 540 0
DWIDTH 15 0
BBX 13 19 1 0
BITMAP
0780
0FC0
1DE0
38E0
0000
0FC0
1FE0
3FF0
7878
F038
FFF8
FFF8
FFF8
F000
F030
7878
7FF0
3FE0
0FC0
ENDCHAR
STARTCHAR 00EB
ENCODING 235
SWIDTH 540 0
DWIDTH 15 0
BBX 13 19 1 0
BITMAP
1860
3CF0
3CF0
1860
0000
0FC0
1FE0
3FF0
7878
F038
FFF8
FFF8
FFF8
F000
F030
7878
7FF0
3FE0
0FC0
ENDCHAR
STARTCHAR 00EC
ENCODING 236
SWIDTH 288 0
DWIDTH 8 0
BBX 7 20 -1 0
BITMAP
F0
78
3C
1C
00
00
1E
1E
1E
1E
1E
1E
1E
1E
1E
1E
1E
1E
1E
1E
ENDCHAR
STARTCHAR 00ED
ENCODING 237
SWIDTH 288 0
DWIDTH 8 0
BBX 6 20 2 0
BITMAP
3C
38
78
F0
00
00
F0
F0
F0
F0
F0
F0
F0
F0
F0
F0
F0
F0
F0
F0
ENDCHAR
STARTCHAR 00EE
ENCODING 238
SWIDTH 288 0
DWIDTH 8 0
BBX 9 20 -1 0
BITMAP
1E00
3F00
7780
E380
0000
0000
1E00
1E00
1E00
1E00
1E00
1E00
1E00
1E00
1E00
1E00
1E00
1E00
1E00
1E00
ENDCHAR
STARTCHAR 00EF
ENCODING 239
SWIDTH 288 0
DWIDTH 8 0
BBX 9 20 -1 0
BITMAP
6300
7780
F780
7380
0000
0000
1E00
1E00
1E00
1E00
1E00
1E00
1E00
1E00
1E00
1E00
1E00
1E00
1E00
1E00
ENDCHAR
STARTCHAR 00F0
ENCODING 240
SWIDTH 576 0
DWIDTH 16 0
BBX 14 21 1 0
BITMAP
1800
1F00
1FF8
0FF8
07E0
1FF0
0CF8
0078
0FBC
3FFC
7FFC
787C
F03C
F03C
F01C
F03C
F03C
7CF8
7FF0
3FF0
0FC0
ENDCHAR
STARTCHAR 00F1
ENCODING 241
SWIDTH 576 0
DWIDTH 16 0
BBX 12 19 2 0
BITMAP
1E60
3FE0
3FE0
73C0
0000
F7C0
FFE0
FFF0
F9F0
F0F0
F070
F070
F070
F070
F070
F070
F070
F070
F070
ENDCHAR
STARTCHAR 00F2
ENCODING 242
SWIDTH 576 0
DWIDTH 16 0
BBX 14 19 1 0
BITMAP
3E00
1E00
0F00
0700
0000
0FC0
1FF0
3FF8
7CF8
F83C
F03C
F01C
F01C
F03C
F83C
7CF8
3FF8
1FF0
0FC0
ENDCHAR
STARTCHAR 00F3
ENCODING 243
SWIDTH 576 0
DWIDTH 16 0
BBX 14 19 1 0
BITMAP
01F0
01E0
03C0
0380
0000
0FC0
1FF0
3FF8
7CF8
F83C
F03C
F01C
F01C
F03C
F83C
7CF8
3FF8
1FF0
0FC0
ENDCHAR
STARTCHAR 00F4
ENCODING 244
SWIDTH 576 0
DWIDTH 16 0
BBX 14 19 1 0
BITMAP
0780
0FC0
1EE0
1C70
0000
0FC0
1FF0
3FF8
7CF8
F83C
F03C
F01C
F01C
F03C
F83C
7CF8
3FF8
1FF0
0FC0
ENDCHAR
STARTCHAR 00F5
ENCODING 245
SWIDTH 576 0
DWIDTH 16 0
BBX 14 19 1 0
BITMAP
0E30
1FF0
3FE0
39C0
0000
0FC0
1FF0
3FF8
7CF8
F83C
F03C
F01C
F01C
F03C
F83C
7CF8
3FF8
1FF0
0FC0
ENDCHAR
STARTCHAR 00F6
ENCODING 246
SWIDTH 576 0
DWIDTH 16 0
BBX 14 19 1 0
BITMAP
1860
3CF0
3CF0
1860
0000
0FC0
1FF0
3FF8
7CF8
F83C
F03C
F01C
F01C
F03C
F83C
7CF8
3FF8
1FF0
0FC0
ENDCHAR
STARTCHAR 00F7
ENCODING 247
SWIDTH 576 0
DWIDTH 16 0
BBX 14 14 1 1
BITMAP
0380
0780
0780
0300
0000
FFFC
FFFC
FFFC
0000
0000
0780
0780
0780
0300
ENDCHAR
STARTCHAR 00F8
ENCODING 248
SWIDTH 576 0
DWIDTH 16 0
BBX 14 16 1 -1
BITMAP
0008
0FDC
1FF8
3FF8
7CF8
F8FC
F1FC
F39C
F71C
FE3C
FE3C
7CF8
3FF8
7FF0
EFC0
2000
ENDCHAR
STARTCHAR 00F9
ENCODING 249
SWIDTH 576 0
DWIDTH 16 0
BBX 12 20 2 0
BITMAP
3C00
1E00
0E00
0700
0000
0000
F070
F070
F070
F070
F070
F070
F070
F070
F070
F0F0
F8F0
FFF0
7FF0
1E70
ENDCHAR
STARTCHAR 00FA
ENCODING 250
SWIDTH 576 0
DWIDTH 16 0
BBX 12 20 2 0
BITMAP
03C0
0780
0700
0E00
0000
0000
F070
F070
F070
F070
F070
F070
F070
F070
F070
F0F0
F8F0
FFF0
7FF0
1E70
ENDCHAR
STARTCHAR 00FB
ENCODING 251
SWIDTH 576 0
DWIDTH 16 0
BBX 12 20 2 0
BITMAP
0F00
1F80
3DC0
38E0
0000
0000
F070
F070
F070
F070
F070
F070
F070
F070
F070
F0F0
F8F0
FFF0
7FF0
1E70
ENDCHAR
STARTCHAR 00FC
ENCODING 252
SWIDTH 576 0
DWIDTH 16 0
BBX 12 20 2 0
BITMAP
30C0
79E0
79E0
38C0
0000
0000
F070
F070
F070
F070
F070
F070
F070
F070
F070
F0F0
F8F0
FFF0
7FF0
1E70
ENDCHAR
STARTCHAR 00FD
ENCODING 253
SWIDTH 576 0
DWIDTH 16 0
BBX 15 25 0 -5
BITMAP
00F0
01E0
01C0
0380
0000
0000
F81E
781E
783C
3C3C
3C78
1E78
1E70
0FF0
0FE0
07E0
07E0
03C0
03C0
0780
0780
0F00
0F00
1E00
1E00
ENDCHAR
STARTCHAR 00FE
ENCODING 254
SWIDTH 612 0
DWIDTH 17 0
BBX 14 25 2 -5
BITMAP
F000
F000
F000
F000
F000
F000
F7C0
FFF0
FFF8
FCF8
F03C
F03C
F03C
F03C
F03C
F03C
FCF8
FFF8
FFF0
F7C0
F000
F000
F000
F000
F000
ENDCHAR
STARTCHAR 00FF
ENCODING 255
SWIDTH 576 0
DWIDTH 16 0
BBX 15 25 0 -5
BITMAP
0C30
1E78
1E78
0C70
0000
0000
F81E
781E
783C
3C3C
3C78
1E78
1E70
0FF0
0FE0
07E0
07E0
03C0
03C0
0780
0780
0F00
0F00
1E00
1E00
ENDCHAR
STARTCHAR 0131
ENCODING 305
SWIDTH 288 0
DWIDTH 8 0
BBX 4 14 2 0
BITMAP
F0
F0
F0
F0
F0
F0
F0
F0
F0
F0
F0
F0
F0
F0
ENDCHAR
STARTCHAR 0141
ENCODING 321
SWIDTH 576 0
DWIDTH 16 0
BBX 15 20 0 0
BITMAP
1E00
1E00
1E00
1E00
1E00
1E00
1E20
1FE0
1FE0
1FC0
7F00
FE00
FE00
9E00
1E00
1E00
1FFE
1FFE
1FFE
1FFE
ENDCHAR
STARTCHAR 0142
ENCODING 322
SWIDTH 324 0
DWIDTH 9 0
BBX 9 20 0 0
BITMAP
1C00
1C00
1C00
1C00
1C00
1C00
1C00
1C80
1F80
1F80
7F00
FC00
FC00
9C00
1C00
1C00
1C00
1C00
1C00
1C00
ENDCHAR
STARTCHAR 0152
ENCODING 338
SWIDTH 1116 0
DWIDTH 31 0
BBX 29 20 1 0
BITMAP
01F8FFF8
07FFFFF8
1FFFFFF8
3F9FFFF8
3C03F000
7801F000
7800F000
F000F000
F000FFF0
F000FFF0
F000FFF0
F000F000
F800F000
7800F000
7C01F000
3E03F000
3F9FFFF8
1FFFFFF8
07FEFFF8
01F8FFF8
ENDCHAR
STARTCHAR 0153
ENCODING 339
SWIDTH 936 0
DWIDTH 26 0
BBX 24 14 1 0
BITMAP
0FC1F0
1FF7FC
3FFFFE
7CFF1E
F03E0F
F03FFF
F01FFF
F01FFF
F03C00
F83E06
7CFF1F
3FFFFE
1FF7FC
0FC1F0
ENDCHAR
STARTCHAR 0160
ENCODING 352
SWIDTH 612 0
DWIDTH 17 0
BBX 15 25 1 0
BITMAP
3C78
1EF0
0FE0
07C0
0000
07E0
1FF0
3FF8
7EFC
783C
7018
7800
7800
7F80
3FF0
1FF8
03FC
003E
201E
F01E
F81E
7E7C
7FFC
1FF0
0FE0
ENDCHAR
STARTCHAR 0161
ENCODING 353
SWIDTH 468 0
DWIDTH 13 0
BBX 11 19 1 0
BITMAP
71C0
3B80
3F00
1F00
0000
1F00
7F80
7FC0
F1E0
F000
FC00
7F80
3FC0
07E0
21E0
F1E0
FFC0
7FC0
1F00
ENDCHAR
STARTCHAR 0178
ENCODING 376
SWIDTH 648 0
DWIDTH 18 0
BBX 17 25 1 0
BITMAP
0C3800
1E3800
1E7800
0C3800
000000
F00F80
F80F00
781E00
7C1E00
3C3C00
1E3C00
1E7800
0FF000
0FF000
07E000
07E000
03C000
03C000
03C000
03C000
03C000
03C000
03C000
03C000
03C000
ENDCHAR
STARTCHAR 017D
ENCODING 381
SWIDTH 648 0
DWIDTH 18 0
BBX 16 25 1 0
BITMAP
1E78
0FF0
07E0
03C0
0000
FFFE
FFFE
FFFE
FFFE
003E
007C
00F8
01F0
03E0
03E0
07C0
0F80
1F00
3E00
3E00
7C00
FFFF
FFFF
FFFF
FFFF
ENDCHAR
STARTCHAR 017E
ENCODING 382
SWIDTH 468 0
DWIDTH 13 0
BBX 11 20 1 0
BITMAP
71C0
3BC0
1F80
0F00
0000
0000
FFE0
FFE0
FFE0
03E0
07C0
0780
0F00
1E00
3E00
7C00
F800
FFE0
FFE0
FFE0
ENDCHAR
STARTCHAR 0192
ENCODING 402
SWIDTH 504 0
DWIDTH 14 0
BBX 15 26 -1 -5
BITMAP
003E
007E
00FE
00F8
01E0
01E0
01E0
0FFC
0FFC
0FFC
03C0
03C0
03C0
0380
0780
0780
0780
0780
0700
0F00
0F00
0F00
BF00
FE00
FC00
F800
ENDCHAR
STARTCHAR 02C6
ENCODING 710
SWIDTH 396 0
DWIDTH 11 0
BBX 9 4 1 15
BITMAP
3E00
3F00
7700
E380
ENDCHAR
STARTCHAR 02C7
ENCODING 711
SWIDTH 396 0
DWIDTH 11 0
BBX 9 4 1 15
BITMAP
E380
7700
3F00
3E00
ENDCHAR
STARTCHAR 02C9
ENCODING 713
SWIDTH 324 0
DWIDTH 9 0
BBX 8 3 1 16
BITMAP
FF
FF
FF
ENDCHAR
STARTCHAR 02D8
ENCODING 728
SWIDTH 360 0
DWIDTH 10 0
BBX 9 4 1 15
BITMAP
E380
FF00
7E00
0800
ENDCHAR
STARTCHAR 02D9
ENCODING 729
SWIDTH 180 0
DWIDTH 5 0
BBX 5 5 0 15
BITMAP
70
78
F8
78
70
ENDCHAR
STARTCHAR 02DA
ENCODING 730
SWIDTH 288 0
DWIDTH 8 0
BBX 6 6 1 15
BITMAP
78
FC
CC
CC
FC
78
ENDCHAR
STARTCHAR 02DB
ENCODING 731
SWIDTH 216 0
DWIDTH 6 0
BBX 5 6 1 -6
BITMAP
30
E0
C0
E0
F8
78
ENDCHAR
STARTCHAR 02DC
ENCODING 732
SWIDTH 396 0
DWIDTH 11 0
BBX 9 4 1 15
BITMAP
7980
FF80
FF80
C700
ENDCHAR
STARTCHAR 02DD
ENCODING 733
SWIDTH 396 0
DWIDTH 11 0
BBX 9 4 1 15
BITMAP
7780
7700
E600
CE00
ENDCHAR
STARTCHAR 0394
ENCODING 916
SWIDTH 684 0
DWIDTH 19 0
BBX 19 20 0 0
BITMAP
01F000
01F000
01F800
03F800
03B800
07BC00
07BC00
071C00
0F1E00
0F1E00
0E0F00
1E0F00
1E0F00
3C0780
3C0780
3C03C0
7FFFC0
7FFFC0
7FFFE0
FFFFE0
ENDCHAR
STARTCHAR 03A9
ENCODING 937
SWIDTH 792 0
DWIDTH 22 0
BBX 19 20 1 0
BITMAP
01F800
0FFE00
1FFF80
3FFFC0
7E07C0
7C03E0
7801E0
F001E0
F001E0
F001E0
F001E0
7801E0
7803E0
3C07C0
3F0F80
0F9F00
FF9C00
FF9FE0
FF9FE0
FF9FE0
ENDCHAR
STARTCHAR 03BC
ENCODING 956
SWIDTH 612 0
DWIDTH 17 0
BBX 13 19 2 -5
BITMAP
F070
F070
F070
F070
F070
F070
F070
F070
F070
F070
F8F0
FFF0
FFF8
FE78
F000
F000
F000
F000
F000
ENDCHAR
STARTCHAR 03C0
ENCODING 960
SWIDTH 648 0
DWIDTH 18 0
BBX 16 14 1 0
BITMAP
FFFF
FFFF
FFFF
3C38
3C38
3C38
3C38
3C38
3C38
3C38
3C3C
3C3F
3C3F
3C1F
ENDCHAR
STARTCHAR 2007
ENCODING 8199
SWIDTH 612 0
DWIDTH 17 0
BBX 0 0 0 0
BITMAP
ENDCHAR
STARTCHAR 2008
ENCODING 8200
SWIDTH 324 0
DWIDTH 9 0
BBX 0 0 0 0
BITMAP
ENDCHAR
STARTCHAR 200B
ENCODING 8203
SWIDTH 0 0
DWIDTH 0 0
BBX 0 0 0 0
BITMAP
ENDCHAR
STARTCHAR 2013
ENCODING 8211
SWIDTH 648 0
DWIDTH 18 0
BBX 14 3 2 7
BITMAP
FFFC
FFFC
FFFC
ENDCHAR
STARTCHAR 2014
ENCODING 8212
SWIDTH 1080 0
DWIDTH 30 0
BBX 26 3 2 7
BITMAP
FFFFFFC0
FFFFFFC0
FFFFFFC0
ENDCHAR
STARTCHAR 2018
ENCODING 8216
SWIDTH 216 0
DWIDTH 6 0
BBX 5 8 1 12
BITMAP
10
70
60
C0
F0
F8
F0
70
ENDCHAR
STARTCHAR 2019
ENCODING 8217
SWIDTH 252 0
DWIDTH 7 0
BBX 5 8 1 12
BITMAP
70
F0
F8
78
30
30
E0
C0
ENDCHAR
STARTCHAR 201A
ENCODING 8218
SWIDTH 252 0
DWIDTH 7 0
BBX 5 8 1 -4
BITMAP
70
F0
F8
78
30
30
E0
C0
ENDCHAR
STARTCHAR 201C
ENCODING 8220
SWIDTH 432 0
DWIDTH 12 0
BBX 10 8 1 12
BITMAP
10C0
71C0
6300
C300
F780
FFC0
F3C0
7380
ENDCHAR
STARTCHAR 201D
ENCODING 8221
SWIDTH 432 0
DWIDTH 12 0
BBX 10 8 1 12
BITMAP
7380
F7C0
FFC0
7BC0
30C0
3180
E380
C200
ENDCHAR
STARTCHAR 201E
ENCODING 8222
SWIDTH 432 0
DWIDTH 12 0
BBX 10 8 1 -4
BITMAP
7380
F7C0
FFC0
7BC0
30C0
3180
E380
C200
ENDCHAR
STARTCHAR 2020
ENCODING 8224
SWIDTH 396 0
DWIDTH 11 0
BBX 10 15 1 5
BITMAP
1C00
1C00
1C00
1C00
FFC0
FFC0
FFC0
1C00
1C00
1C00
1C00
1C00
1C00
1C00
1C00
ENDCHAR
STARTCHAR 2021
ENCODING 8225
SWIDTH 468 0
DWIDTH 13 0
BBX 10 20 1 0
BITMAP
0E00
0E00
0E00
0E00
FFC0
FFC0
FFC0
0E00
0E00
0E00
0E00
0E00
0E00
FFC0
FFC0
FFC0
0E00
0E00
0E00
0E00
ENDCHAR
STARTCHAR 2022
ENCODING 8226
SWIDTH 540 0
DWIDTH 15 0
BBX 11 12 2 2
BITMAP
1F00
3F80
7FC0
FFE0
FFE0
FFE0
FFE0
FFE0
FFE0
7FC0
3F80
1F00
ENDCHAR
STARTCHAR 2026
ENCODING 8230
SWIDTH 936 0
DWIDTH 26 0
BBX 21 4 2 0
BITMAP
707038
F87878
F07878
707038
ENDCHAR
STARTCHAR 2030
ENCODING 8240
SWIDTH 1080 0
DWIDTH 30 0
BBX 28 18 1 0
BITMAP
1E01E000
7F01C000
7F838000
E3870000
E18F0000
F38E0000
7F9C0000
3F3C0000
08380000
0070C100
00E3F7C0
00E7FFE0
01C73C70
038E1C70
078E1C70
0707FFF0
0E07FFE0
1E01E780
ENDCHAR
STARTCHAR 2039
ENCODING 8249
SWIDTH 324 0
DWIDTH 9 0
BBX 7 11 1 3
BITMAP
1E
1C
38
78
F0
E0
F0
78
38
3C
1E
ENDCHAR
STARTCHAR 203A
ENCODING 8250
SWIDTH 324 0
DWIDTH 9 0
BBX 7 11 1 3
BITMAP
E0
F0
78
38
1C
1E
1C
38
78
70
E0
ENDCHAR
STARTCHAR 2042
ENCODING 8258
SWIDTH 828 0
DWIDTH 23 0
BBX 21 20 1 0
BITMAP
007000
007000
027200
03FE00
03FE00
00F800
00F800
01DC00
018C00
000000
0C01C0
0C01C0
0C01C0
ED8FF8
FFCFF8
7F87F0
3E03E0
3F07F0
738770
220220
ENDCHAR
STARTCHAR 2044
ENCODING 8260
SWIDTH 576 0
DWIDTH 16 0
BBX 16 18 0 0
BITMAP
000F
000E
001C
0038
0038
0070
00E0
01E0
01C0
0380
0780
0700
0E00
1C00
3C00
3800
7000
F000
ENDCHAR
STARTCHAR 2051
ENCODING 8273
SWIDTH 432 0
DWIDTH 12 0
BBX 10 20 1 0
BITMAP
0C00
0C00
4C80
FF80
FFC0
1E00
3F00
7F00
3300
0000
0C00
0C00
0C00
6D80
FFC0
7F80
1E00
3F00
7380
2200
ENDCHAR
STARTCHAR 2070
ENCODING 8304
SWIDTH 432 0
DWIDTH 12 0
BBX 10 11 1 9
BITMAP
1E00
3F80
7F80
7380
E1C0
E1C0
E1C0
7180
7B80
3F80
1E00
ENDCHAR
STARTCHAR 2074
ENCODING 8308
SWIDTH 432 0
DWIDTH 12 0
BBX 10 10 1 10
BITMAP
0700
0F00
1F00
3F00
7700
E700
FFC0
FFC0
0700
0700
ENDCHAR
STARTCHAR 2075
ENCODING 8309
SWIDTH 396 0
DWIDTH 11 0
BBX 9 10 1 10
BITMAP
3F00
3F00
7000
6400
7F00
3780
0380
E380
7F00
3E00
ENDCHAR
STARTCHAR 2076
ENCODING 8310
SWIDTH 432 0
DWIDTH 12 0
BBX 9 11 1 9
BITMAP
0F80
3F80
7800
7000
7F00
FF80
F380
6380
7380
7F00
1E00
ENDCHAR
STARTCHAR 2077
ENCODING 8311
SWIDTH 396 0
DWIDTH 11 0
BBX 9 10 1 10
BITMAP
FF80
FF80
0780
0700
0E00
1C00
1C00
1800
3800
3800
ENDCHAR
STARTCHAR 2078
ENCODING 8312
SWIDTH 432 0
DWIDTH 12 0
BBX 8 11 2 9
BITMAP
7C
FE
E7
E7
7E
7E
E7
C7
E7
FF
7C
ENDCHAR
STARTCHAR 2079
ENCODING 8313
SWIDTH 432 0
DWIDTH 12 0
BBX 9 11 1 9
BITMAP
1E00
7F00
7780
E380
E380
7F80
3F80
0380
4700
7E00
7C00
ENDCHAR
STARTCHAR 2080
ENCODING 8320
SWIDTH 432 0
DWIDTH 12 0
BBX 10 10 1 -2
BITMAP
3F00
7F80
7380
61C0
E1C0
E1C0
61C0
7380
7F80
3F00
ENDCHAR
STARTCHAR 2081
ENCODING 8321
SWIDTH 324 0
DWIDTH 9 0
BBX 5 10 1 -3
BITMAP
18
38
F8
F8
18
18
18
18
18
18
ENDCHAR
STARTCHAR 2082
ENCODING 8322
SWIDTH 396 0
DWIDTH 11 0
BBX 9 10 1 -3
BITMAP
3E00
7F00
6700
6300
0F00
1E00
3C00
7000
7F80
FF80
ENDCHAR
STARTCHAR 2083
ENCODING 8323
SWIDTH 396 0
DWIDTH 11 0
BBX 8 10 2 -3
BITMAP
FF
FF
0E
38
3E
0F
47
EF
FE
7C
ENDCHAR
STARTCHAR 2084
ENCODING 8324
SWIDTH 432 0
DWIDTH 12 0
BBX 10 10 1 -3
BITMAP
0700
0F00
1F00
3F00
7700
E700
FFC0
FFC0
0700
0700
ENDCHAR
STARTCHAR 2085
ENCODING 8325
SWIDTH 396 0
DWIDTH 11 0
BBX 8 10 2 -3
BITMAP
7E
7E
E0
DC
FE
07
47
EF
FE
7C
ENDCHAR
STARTCHAR 2086
ENCODING 8326
SWIDTH 432 0
DWIDTH 12 0
BBX 9 10 1 -3
BITMAP
1F80
3F00
7800
7600
7F80
F380
6380
7380
7F00
1E00
ENDCHAR
STARTCHAR 2087
ENCODING 8327
SWIDTH 396 0
DWIDTH 11 0
BBX 9 10 1 -3
BITMAP
FF80
FF80
0700
0E00
0E00
1C00
1C00
3800
3800
3800
ENDCHAR
STARTCHAR 2088
ENCODING 8328
SWIDTH 432 0
DWIDTH 12 0
BBX 8 10 2 -3
BITMAP
7E
FF
E7
E7
7E
FE
C7
E7
FF
7E
ENDCHAR
STARTCHAR 2089
ENCODING 8329
SWIDTH 432 0
DWIDTH 12 0
BBX 9 10 1 -3
BITMAP
3E00
7F00
7380
E380
7780
7F80
0380
4F00
7F00
7C00
ENDCHAR
STARTCHAR 20AC
ENCODING 8364
SWIDTH 684 0
DWIDTH 19 0
BBX 16 18 2 0
BITMAP
00FC
03FF
07FE
0FCE
1F00
1E00
FFF8
FFF8
FFF0
3C00
FFE0
FFE0
FFC0
1E00
1FCE
0FFF
03FF
00FC
ENDCHAR
STARTCHAR 2113
ENCODING 8467
SWIDTH 432 0
DWIDTH 12 0
BBX 10 18 1 0
BITMAP
0F00
1F80
3FC0
39C0
39C0
39C0
3BC0
3F80
3F80
3F00
FE00
F800
F800
3800
3C40
3FC0
1FC0
0F80
ENDCHAR
STARTCHAR 2122
ENCODING 8482
SWIDTH 864 0
DWIDTH 24 0
BBX 22 10 1 10
BITMAP
FF3C3C
FF3C3C
183C7C
183E7C
183EFC
1837FC
1837DC
1833DC
18339C
18319C
ENDCHAR
STARTCHAR 2126
ENCODING 8486
SWIDTH 792 0
DWIDTH 22 0
BBX 19 20 1 0
BITMAP
01F800
0FFE00
1FFF80
3FFFC0
7E07C0
7C03E0
7801E0
F001E0
F001E0
F001E0
F001E0
7801E0
7803E0
3C07C0
3F0F80
0F9F00
FF9C00
FF9FE0
FF9FE0
FF9FE0
ENDCHAR
STARTCHAR 2160
ENCODING 8544
SWIDTH 504 0
DWIDTH 14 0
BBX 12 18 1 0
BITMAP
FFF0
FFF0
FFF0
0F00
0F00
0F00
0F00
0F00
0F00
0F00
0F00
0F00
0F00
0F00
0F00
FFF0
FFF0
FFF0
ENDCHAR
STARTCHAR 2161
ENCODING 8545
SWIDTH 792 0
DWIDTH 22 0
BBX 20 18 1 0
BITMAP
FFFFF0
FFFFF0
FFFFF0
0F0F00
0F0F00
0F0F00
0F0F00
0F0F00
0F0F00
0F0F00
0F0F00
0F0F00
0F0F00
0F0F00
0F0F00
FFFFF0
FFFFF0
FFFFF0
ENDCHAR
STARTCHAR 2162
ENCODING 8546
SWIDTH 1044 0
DWIDTH 29 0
BBX 27 18 1 0
BITMAP
FFFFFFE0
FFFFFFE0
FFFFFFE0
0F0F0E00
0F0F0E00
0F0F0E00
0F0F0E00
0F0F0E00
0F0F0E00
0F0F0E00
0F0F0E00
0F0F0E00
0F0F0E00
0F0F0E00
0F0F0E00
FFFFFFE0
FFFFFFE0
FFFFFFE0
ENDCHAR
STARTCHAR 2163
ENCODING 8547
SWIDTH 1044 0
DWIDTH 29 0
BBX 27 18 1 0
BITMAP
FFFFFFE0
FFFFFFE0
FFFFFFE0
0F3C0F00
0F3C0F00
0F1E1E00
0F1E1E00
0F1E1E00
0F0F3C00
0F0F3C00
0F0F3C00
0F073800
0F07F800
0F07F800
0F03F000
FFFFFFE0
FFFFFFE0
FFFFFFE0
ENDCHAR
STARTCHAR 2164
ENCODING 8548
SWIDTH 792 0
DWIDTH 22 0
BBX 20 18 1 0
BITMAP
FFFFF0
FFFFF0
FFFFF0
1E0780
0F0780
0F0700
0F0F00
070F00
078F00
079E00
079E00
03DE00
03DC00
03FC00
01FC00
FFFFF0
FFFFF0
FFFFF0
ENDCHAR
STARTCHAR 2165
ENCODING 8549
SWIDTH 1044 0
DWIDTH 29 0
BBX 27 18 1 0
BITMAP
FFFFFFE0
FFFFFFE0
FFFFFFE0
1E079E00
0F079E00
0F079E00
0F0F1E00
070F1E00
078F1E00
079E1E00
039E1E00
03DE1E00
03DC1E00
01FC1E00
01FC1E00
FFFFFFE0
FFFFFFE0
FFFFFFE0
ENDCHAR
STARTCHAR 2166
ENCODING 8550
SWIDTH 1332 0
DWIDTH 37 0
BBX 35 18 1 0
BITMAP
FFFFFFFFE0
FFFFFFFFE0
FFFFFFFFE0
1E079E1E00
0F079E1E00
0F079E1E00
0F0F1E1E00
070F1E1E00
078F1E1E00
079E1E1E00
039E1E1E00
03DE1E1E00
03DC1E1E00
01FC1E1E00
01FC1E1E00
FFFFFFFFE0
FFFFFFFFE0
FFFFFFFFE0
ENDCHAR
STARTCHAR 2167
ENCODING 8551
SWIDTH 1584 0
DWIDTH 44 0
BBX 42 18 1 0
BITMAP
FFFFFFFFFFC0
FFFFFFFFFFC0
FFFFFFFFFFC0
1E079E1E3C00
0F079E1E3C00
0F071E1E3C00
0F0F1E1E3C00
070F1E1E3C00
078E1E1E3C00
079E1E1E3C00
039E1E1E3C00
03DE1E1E3C00
03DC1E1E3C00
03FC1E1E3C00
01FC1E1E3C00
FFFFFFFFFFC0
FFFFFFFFFFC0
FFFFFFFFFFC0
ENDCHAR
STARTCHAR 2168
ENCODING 8552
SWIDTH 1044 0
DWIDTH 29 0
BBX 26 18 1 0
BITMAP
FFFFFFC0
FFFFFFC0
FFFFFFC0
0F3E1E00
0F1E3C00
0F0F7C00
0F0FF800
0F07F000
0F03F000
0F03E000
0F07F000
0F0FF800
0F0F7C00
0F1E3C00
0F3E1E00
FFFFFFC0
FFFFFFC0
FFFFFFC0
ENDCHAR
STARTCHAR 2169
ENCODING 8553
SWIDTH 792 0
DWIDTH 22 0
BBX 19 18 1 0
BITMAP
FFFFE0
FFFFE0
FFFFE0
1F0F00
0F1F00
07BE00
07FC00
03F800
01F800
01F800
03F800
03FC00
07BE00
0F9E00
1F0F00
FFFFE0
FFFFE0
FFFFE0
ENDCHAR
STARTCHAR 216C
ENCODING 8556
SWIDTH 648 0
DWIDTH 18 0
BBX 16 18 1 0
BITMAP
FFE0
FFE0
FFE0
0E00
0E00
0E00
0E00
0E00
0E00
0E00
0E0F
0E0F
0E0F
0E0F
0E0F
FFFF
FFFF
FFFF
ENDCHAR
STARTCHAR 216D
ENCODING 8557
SWIDTH 720 0
DWIDTH 20 0
BBX 18 18 1 0
BITMAP
03F3C0
0FFFC0
1FFFC0
3E0FC0
7C07C0
7803C0
7003C0
F00000
F00000
F00000
F00000
7803C0
7803C0
7C07C0
3FBFC0
1FFFC0
0FFFC0
03F3C0
ENDCHAR
STARTCHAR 216E
ENCODING 8558
SWIDTH 756 0
DWIDTH 21 0
BBX 18 18 1 0
BITMAP
FFF800
FFFE00
FFFF00
0F1F80
0F0780
0F03C0
0F03C0
0F03C0
0F03C0
0F03C0
0F03C0
0F03C0
0F03C0
0F0780
0F1F80
FFFF00
FFFE00
FFF800
ENDCHAR
STARTCHAR 216F
ENCODING 8559
SWIDTH 1044 0
DWIDTH 29 0
BBX 27 18 1 0
BITMAP
FF803FE0
FF803FE0
FFC07FE0
0FC07F00
0FE0FF00
0FE0FF00
0EE0FF00
0EF1EF00
0EF1EF00
0E79CF00
0E7BCF00
0E3BCF00
0E3F8F00
0E3F8F00
0E1F0F00
FF9F3FE0
FF8E3FE0
FF8E3FE0
ENDCHAR
STARTCHAR 2190
ENCODING 8592
SWIDTH 1080 0
DWIDTH 30 0
BBX 28 13 0 2
BITMAP
02000000
06000000
0E000000
1E000000
3E000000
7FFFFFF0
FFFFFFF0
7FFFFFF0
3E000000
1E000000
0E000000
06000000
02000000
ENDCHAR
STARTCHAR 2191
ENCODING 8593
SWIDTH 504 0
DWIDTH 14 0
BBX 12 26 1 -4
BITMAP
0200
0700
0F00
1F80
3FC0
7FE0
7FF0
8700
0700
0700
0700
0700
0700
0700
0700
0700
0700
0700
0700
0700
0700
0700
0700
0700
0700
0700
ENDCHAR
STARTCHAR 2192
ENCODING 8594
SWIDTH 1080 0
DWIDTH 30 0
BBX 28 13 1 2
BITMAP
00000800
00000C00
00000E00
00000F00
00000FC0
FFFFFFE0
FFFFFFF0
FFFFFFE0
00000FC0
00000F00
00000E00
00000C00
00000800
ENDCHAR
STARTCHAR 2193
ENCODING 8595
SWIDTH 468 0
DWIDTH 13 0
BBX 12 26 0 -4
BITMAP
0700
0700
0700
0700
0700
0700
0700
0700
0700
0700
0700
0700
0700
0700
0700
0700
0700
0700
0700
FFF0
7FE0
3FC0
1F80
0F00
0700
0200
ENDCHAR
STARTCHAR 2196
ENCODING 8598
SWIDTH 864 0
DWIDTH 24 0
BBX 20 20 2 0
BITMAP
FF8000
FF0000
FE0000
FC0000
FE0000
FF0000
EF8000
C7C000
83E000
01F000
00F800
007C00
003E00
001F00
000F80
0007C0
0003E0
0001F0
0000E0
000040
ENDCHAR
STARTCHAR 2197
ENCODING 8599
SWIDTH 756 0
DWIDTH 21 0
BBX 20 20 -1 0
BITMAP
001FF0
000FF0
0007F0
0003F0
0007F0
000FF0
001E70
003C30
007810
00F000
01E000
03C000
078000
0F0000
1E0000
3C0000
780000
F00000
E00000
400000
ENDCHAR
STARTCHAR 2198
ENCODING 8600
SWIDTH 864 0
DWIDTH 24 0
BBX 20 20 1 0
BITMAP
200000
700000
F80000
7C0000
3E0000
1F0000
0F8000
07C000
03E000
01F000
00F800
007C10
003E10
001F30
000FF0
0007F0
0003F0
0003F0
0007F0
000FF0
ENDCHAR
STARTCHAR 2199
ENCODING 8601
SWIDTH 756 0
DWIDTH 21 0
BBX 20 20 1 0
BITMAP
000040
0000E0
0001F0
0003E0
0007C0
000F80
001F00
003E00
007C00
00F800
01F000
83E000
C7C000
EF8000
FF0000
FE0000
FC0000
FE0000
FF0000
FF8000
ENDCHAR
STARTCHAR 21A9
ENCODING 8617
SWIDTH 864 0
DWIDTH 24 0
BBX 23 17 0 1
BITMAP
001FF0
001FF8
001FFC
00003E
02000E
06000E
0E000E
1E000E
3E003E
FFFFFC
FFFFF8
7FFFF0
3E0000
1E0000
0E0000
060000
020000
ENDCHAR
STARTCHAR 21B0
ENCODING 8624
SWIDTH 792 0
DWIDTH 22 0
BBX 19 20 1 0
BITMAP
020000
020000
060000
1E0000
3E0000
7FFFE0
FFFFE0
7FFFE0
1E00E0
0E00E0
0600E0
0200E0
0000E0
0000E0
0000E0
0000E0
0000E0
0000E0
0000E0
0000E0
ENDCHAR
STARTCHAR 21B1
ENCODING 8625
SWIDTH 756 0
DWIDTH 21 0
BBX 19 20 1 0
BITMAP
000800
000C00
000E00
000F00
000F80
FFFFE0
FFFFE0
FFFFC0
E00F80
E00F00
E00E00
E00C00
E00000
E00000
E00000
E00000
E00000
E00000
E00000
E00000
ENDCHAR
STARTCHAR 21B2
ENCODING 8626
SWIDTH 756 0
DWIDTH 21 0
BBX 19 20 0 0
BITMAP
0000E0
0000E0
0000E0
0000E0
0000E0
0000E0
0000E0
0000E0
0200E0
0E00E0
1E00E0
3E00E0
7FFFE0
FFFFE0
7FFFE0
3E0000
1E0000
0E0000
060000
020000
ENDCHAR
STARTCHAR 21B3
ENCODING 8627
SWIDTH 864 0
DWIDTH 24 0
BBX 20 20 2 0
BITMAP
E00000
E00000
E00000
E00000
E00000
E00000
E00000
E00000
E00C00
E00E00
E00F00
E00F80
FFFFC0
FFFFF0
FFFFE0
000F80
000F00
000E00
000C00
000800
ENDCHAR
STARTCHAR 21B4
ENCODING 8628
SWIDTH 792 0
DWIDTH 22 0
BBX 20 20 2 0
BITMAP
FFFE00
FFFE00
FFFE00
000E00
000E00
000E00
000E00
000E00
000E00
000E00
000E00
000E00
000E00
00FFF0
007FE0
003FC0
001F80
000F00
000600
000400
ENDCHAR
STARTCHAR 21C6
ENCODING 8646
SWIDTH 1152 0
DWIDTH 32 0
BBX 29 24 2 -2
BITMAP
02000000
06000000
0E000000
1E000000
3E000000
7FFFFFF0
FFFFFFF0
7FFFFFF0
3E000000
1E000000
0E000000
02000000
00000200
00000300
00000380
000003E0
7FFFFFF0
7FFFFFF8
7FFFFFF0
000003E0
00000380
00000300
00000200
00000400
ENDCHAR
STARTCHAR 2202
ENCODING 8706
SWIDTH 612 0
DWIDTH 17 0
BBX 15 20 1 0
BITMAP
1FC0
7FF0
7FF8
39FC
007C
003C
001E
0FDE
3FFE
7FFE
7C7E
F01E
F01E
F01E
F01E
F83C
7EFC
7FF8
3FF0
0FC0
ENDCHAR
STARTCHAR 2206
ENCODING 8710
SWIDTH 684 0
DWIDTH 19 0
BBX 19 20 0 0
BITMAP
01F000
01F000
01F800
03F800
03B800
07BC00
07BC00
071C00
0F1E00
0F1E00
0E0F00
1E0F00
1E0F00
3C0780
3C0780
3C03C0
7FFFC0
7FFFC0
7FFFE0
FFFFE0
ENDCHAR
STARTCHAR 220F
ENCODING 8719
SWIDTH 684 0
DWIDTH 19 0
BBX 15 20 2 0
BITMAP
FFFE
FFFE
FFFE
FFFE
F01E
F01E
F01E
F01E
F01E
F01E
F01E
F01E
F01E
F01E
F01E
F01E
F01E
F01E
F01E
F01E
ENDCHAR
STARTCHAR 2211
ENCODING 8721
SWIDTH 576 0
DWIDTH 16 0
BBX 14 20 1 0
BITMAP
FFFC
FFFC
FFFC
FFFC
7C00
3E00
1F00
0FC0
07E0
01F0
01F0
07E0
0F80
1F00
3E00
7C00
FFFC
FFFC
FFFC
FFFC
ENDCHAR
STARTCHAR 2212
ENCODING 8722
SWIDTH 576 0
DWIDTH 16 0
BBX 14 3 1 7
BITMAP
FFFC
FFFC
FFFC
ENDCHAR
STARTCHAR 2215
ENCODING 8725
SWIDTH 432 0
DWIDTH 12 0
BBX 12 18 0 0
BITMAP
0070
00F0
00E0
01E0
01C0
03C0
0380
0780
0700
0F00
0E00
1E00
1C00
3C00
3800
7800
7000
F000
ENDCHAR
STARTCHAR 2219
ENCODING 8729
SWIDTH 288 0
DWIDTH 8 0
BBX 4 5 2 6
BITMAP
70
F0
F0
F0
70
ENDCHAR
STARTCHAR 221A
ENCODING 8730
SWIDTH 684 0
DWIDTH 19 0
BBX 19 24 1 0
BITMAP
0007E0
0007E0
000FE0
000E00
000E00
001E00
001C00
001C00
003C00
F03800
F03800
707800
787000
787000
38F000
3CE000
3CE000
1DE000
1FC000
0FC000
0FC000
0F8000
078000
078000
ENDCHAR
STARTCHAR 221E
ENCODING 8734
SWIDTH 828 0
DWIDTH 23 0
BBX 21 10 1 3
BITMAP
1F07C0
3FCFF0
7FFFF0
F1FC78
F0F838
F0F838
F1FC78
7FDFF0
3F8FF0
1F07C0
ENDCHAR
STARTCHAR 222B
ENCODING 8747
SWIDTH 360 0
DWIDTH 10 0
BBX 10 25 0 -5
BITMAP
03C0
0FC0
0FC0
1F00
1E00
1E00
1E00
1E00
1E00
1E00
1E00
1E00
1E00
1E00
1E00
1E00
1E00
1E00
1E00
1E00
1E00
3E00
FC00
F800
F000
ENDCHAR
STARTCHAR 2248
ENCODING 8776
SWIDTH 612 0
DWIDTH 17 0
BBX 14 10 1 3
BITMAP
3E00
7F8C
FFFC
63FC
00F0
0000
3F08
7FFC
FFFC
63F0
ENDCHAR
STARTCHAR 2260
ENCODING 8800
SWIDTH 612 0
DWIDTH 17 0
BBX 13 14 2 1
BITMAP
0070
00F0
00E0
FFF8
FFF8
FFF8
0780
0F00
FFF8
FFF8
FFF8
3800
7000
7000
ENDCHAR
STARTCHAR 2264
ENCODING 8804
SWIDTH 540 0
DWIDTH 15 0
BBX 12 15 2 1
BITMAP
0030
01F0
0FF0
7FE0
FE00
F000
FE00
FFC0
1FF0
03F0
0030
0000
FFF0
FFF0
FFF0
ENDCHAR
STARTCHAR 2265
ENCODING 8805
SWIDTH 540 0
DWIDTH 15 0
BBX 12 15 2 1
BITMAP
8000
F000
FE00
FFC0
0FF0
01F0
0FF0
7FE0
FF00
F800
C000
0000
FFF0
FFF0
FFF0
ENDCHAR
STARTCHAR 22C5
ENCODING 8901
SWIDTH 288 0
DWIDTH 8 0
BBX 4 5 2 6
BITMAP
70
F0
F0
F0
70
ENDCHAR
STARTCHAR 24C5
ENCODING 9413
SWIDTH 828 0
DWIDTH 23 0
BBX 21 20 1 0
BITMAP
01FC00
07FF00
0F0F80
1C01C0
3800E0
71FC60
61FE70
618E30
E18630
C18E38
C1FE38
E1F838
E18030
618070
718070
3800E0
3C01C0
1F0780
07FF00
01FC00
ENDCHAR
STARTCHAR 25A0
ENCODING 9632
SWIDTH 900 0
DWIDTH 25 0
BBX 19 20 3 0
BITMAP
FFFFE0
FFFFE0
FFFFE0
FFFFE0
FFFFE0
FFFFE0
FFFFE0
FFFFE0
FFFFE0
FFFFE0
FFFFE0
FFFFE0
FFFFE0
FFFFE0
FFFFE0
FFFFE0
FFFFE0
FFFFE0
FFFFE0
FFFFE0
ENDCHAR
STARTCHAR 25A1
ENCODING 9633
SWIDTH 900 0
DWIDTH 25 0
BBX 19 20 3 0
BITMAP
FFFFE0
FFFFE0
FFFFE0
E000E0
E000E0
E000E0
E000E0
E000E0
E000E0
E000E0
E000E0
E000E0
E000E0
E000E0
E000E0
E000E0
E000E0
FFFFE0
FFFFE0
FFFFE0
ENDCHAR
STARTCHAR 25B2
ENCODING 9650
SWIDTH 828 0
DWIDTH 23 0
BBX 23 20 0 0
BITMAP
001000
001800
003800
003C00
007C00
00FE00
00FE00
01FF00
01FF80
03FF80
03FFC0
07FFC0
0FFFE0
0FFFF0
1FFFF0
1FFFF8
3FFFF8
7FFFFC
7FFFFC
FFFFFE
ENDCHAR
STARTCHAR 25B3
ENCODING 9651
SWIDTH 828 0
DWIDTH 23 0
BBX 23 20 0 0
BITMAP
001000
001800
003800
003C00
007C00
00FE00
00FE00
01EF00
01C780
03C780
0383C0
0781C0
0F01E0
0E00F0
1E00F0
1C0078
3C0038
7FFFFC
7FFFFC
FFFFFE
ENDCHAR
STARTCHAR 25CA
ENCODING 9674
SWIDTH 612 0
DWIDTH 17 0
BBX 15 20 1 0
BITMAP
07C0
07C0
0FE0
0FF0
1EF0
3E78
3C78
783C
783C
F01E
F01E
783C
783C
3C78
3E78
1EF0
0FF0
0FE0
07C0
07C0
ENDCHAR
STARTCHAR 25CB
ENCODING 9675
SWIDTH 828 0
DWIDTH 23 0
BBX 21 20 1 0
BITMAP
01FC00
07FF00
0FFF80
1F0FC0
3C03E0
7800F0
7000F0
F00070
E00078
E00078
E00078
E00070
F00070
7000F0
7800E0
3C01E0
3F07C0
1FFF80
07FF00
01F800
ENDCHAR
STARTCHAR 25CF
ENCODING 9679
SWIDTH 828 0
DWIDTH 23 0
BBX 21 20 1 0
BITMAP
01FC00
07FF00
0FFF80
1FFFC0
3FFFE0
7FFFF0
7FFFF0
FFFFF0
FFFFF8
FFFFF8
FFFFF8
FFFFF0
FFFFF0
7FFFF0
7FFFE0
3FFFE0
3FFFC0
1FFF80
07FF00
01F800
ENDCHAR
STARTCHAR 262E
ENCODING 9774
SWIDTH 828 0
DWIDTH 23 0
BBX 21 20 1 0
BITMAP
01FC00
07FF00
0FFF80
1F77C0
3C71E0
7870F0
7070F0
F07070
E0F070
E1F878
E3FC78
E7FF70
FF7FF0
7E77F0
7C73E0
3C71E0
1F77C0
0FFF80
07FF00
01F800
ENDCHAR
STARTCHAR 2713
ENCODING 10003
SWIDTH 936 0
DWIDTH 26 0
BBX 24 20 1 0
BITMAP
000002
000007
00000F
00001E
00003E
00007C
0000F8
0001F0
0003E0
4007C0
E00F80
F01F00
783E00
7C3C00
3E7800
1FF000
0FE000
07C000
038000
010000
ENDCHAR
STARTCHAR 2715
ENCODING 10005
SWIDTH 756 0
DWIDTH 21 0
BBX 19 20 1 0
BITMAP
400040
E000E0
F001E0
7803C0
3C0780
1E0F00
0F1E00
07BC00
03F800
01F000
01F000
03F800
07BC00
0F1E00
1E0F00
3C0780
7803C0
F001E0
E000E0
400040
ENDCHAR
STARTCHAR 2780
ENCODING 10112
SWIDTH 828 0
DWIDTH 23 0
BBX 21 20 1 0
BITMAP
01FC00
07FF00
0F0F80
1C01C0
3800E0
703070
607070
61F030
E1F038
E07038
E07038
E07038
E07030
607030
707070
3800E0
1C01C0
0F0780
07FF00
01FC00
ENDCHAR
STARTCHAR 2781
ENCODING 10113
SWIDTH 828 0
DWIDTH 23 0
BBX 21 20 1 0
BITMAP
01FC00
07FF00
0F0F80
1C01C0
3800E0
70F870
61FC70
639C30
E39C38
E03C38
E0F038
E1C038
63FC30
63FC70
700070
3800E0
1C01C0
0F0780
07FF00
01F800
ENDCHAR
STARTCHAR 2782
ENCODING 10114
SWIDTH 828 0
DWIDTH 23 0
BBX 21 20 1 0
BITMAP
01FC00
07FF00
0F0F80
1C01C0
3800E0
73FC70
63FC70
601C30
E07038
E07838
E07C38
E00E38
E39E30
61FC30
70F870
3800E0
1C01C0
0F0780
07FF00
01FC00
ENDCHAR
STARTCHAR 2783
ENCODING 10115
SWIDTH 828 0
DWIDTH 23 0
BBX 21 20 1 0
BITMAP
01FC00
07FF00
0F0F80
1C01C0
3800E0
703870
607870
60F830
E1F838
E3B838
E73838
E7FE38
E7FE30
603830
703870
3800E0
1C01C0
0F0780
07FF00
01FC00
ENDCHAR
STARTCHAR 2784
ENCODING 10116
SWIDTH 828 0
DWIDTH 23 0
BBX 21 20 1 0
BITMAP
01FC00
07FF00
0F0F80
1C01C0
3800E0
71FC70
61FC70
618030
E1B038
E3FC38
E19C38
E00C38
639C30
63FC70
71F870
3800E0
1C01C0
0F0780
07FF00
01FC00
ENDCHAR
STARTCHAR 2785
ENCODING 10117
SWIDTH 828 0
DWIDTH 23 0
BBX 21 20 1 0
BITMAP
01FC00
07FF00
0F0F80
1C01C0
3800E0
707C70
61FC70
61C030
E3B038
E3FC38
E3DC38
E38C38
E39C30
63FC30
70F870
3800E0
1C01C0
0F0780
07FF00
01FC00
ENDCHAR
STARTCHAR 2786
ENCODING 10118
SWIDTH 828 0
DWIDTH 23 0
BBX 21 20 1 0
BITMAP
01FC00
07FF00
0F0F80
1C01C0
3800E0
73FE70
63FE30
E01C30
E03838
E03838
E07038
E07038
60E030
60E070
70E070
3800E0
1C01C0
0F0780
07FF00
01FC00
ENDCHAR
STARTCHAR 2787
ENCODING 10119
SWIDTH 828 0
DWIDTH 23 0
BBX 21 20 1 0
BITMAP
01FC00
07FF00
0F0F80
1C01C0
3800E0
70F870
61FC70
639C30
E19C38
E1F838
E1FC38
E38E38
E38E30
63FC30
71F870
3800E0
1C01C0
0F0780
07FF00
01FC00
ENDCHAR
STARTCHAR 2788
ENCODING 10120
SWIDTH 828 0
DWIDTH 23 0
BBX 21 20 1 0
BITMAP
01FC00
07FF00
0F0F80
1C01C0
3800E0
70F870
61FC70
638E30
E38E38
E3DE38
E1FE38
E06E38
E01C30
61FC30
71F070
3800E0
1C01C0
0F0780
07FF00
01FC00
ENDCHAR
STARTCHAR E000
ENCODING 57344
SWIDTH 756 0
DWIDTH 21 0
BBX 20 20 0 0
BITMAP
07FFF0
07FFF0
07FFF0
070000
070000
070000
070000
070000
070000
070000
070000
070000
070000
FFF000
7FE000
3FC000
1F8000
0F0000
060000
020000
ENDCHAR
STARTCHAR E001
ENCODING 57345
SWIDTH 1116 0
DWIDTH 31 0
BBX 29 20 1 0
BITMAP
001FC000
007FE000
00FFE000
01F84000
03C00300
07800780
07000FC0
07001FE0
0F003FF0
0E003FF8
FFE00780
7FE00780
3FC00700
1F800700
0F000F00
06001E00
00107C00
003FF800
003FF000
001FC000
ENDCHAR
STARTCHAR E002
ENCODING 57346
SWIDTH 972 0
DWIDTH 27 0
BBX 25 20 1 0
BITMAP
01FC0000
07FE0000
0FFC0000
1F840000
3C003000
78007800
7000FC00
7001FE00
F003FF00
E007FF80
E0003800
F0007800
70007000
70007000
7800F000
3C01E000
1F07C000
0FFF8000
07FF0000
01FC0000
ENDCHAR
STARTCHAR FB00
ENCODING 64256
SWIDTH 684 0
DWIDTH 19 0
BBX 18 21 0 0
BITMAP
0783C0
0F87C0
1F8FC0
1F0F80
1E0F00
1C0E00
1C0E00
FFFFC0
FFFFC0
FFFFC0
1C0E00
1C0E00
1C0E00
1C0E00
1C0E00
1C0E00
1C0E00
1C0E00
1C0E00
1C0E00
1C0E00
ENDCHAR
STARTCHAR FB01
ENCODING 64257
SWIDTH 648 0
DWIDTH 18 0
BBX 16 21 0 0
BITMAP
078E
0F8F
1F9F
1F0F
1E00
1C00
1C00
FFFF
FFFF
FFFF
1C0F
1C0F
1C0F
1C0F
1C0F
1C0F
1C0F
1C0F
1C0F
1C0F
1C0F
ENDCHAR
STARTCHAR FB02
ENCODING 64258
SWIDTH 648 0
DWIDTH 18 0
BBX 16 20 0 0
BITMAP
078F
0F8F
1F8F
1E0F
1C0F
1C0F
FFFF
FFFF
FFFF
1C0F
1C0F
1C0F
1C0F
1C0F
1C0F
1C0F
1C0F
1C0F
1C0F
1C0F
ENDCHAR
STARTCHAR FB03
ENCODING 64259
SWIDTH 972 0
DWIDTH 27 0
BBX 25 21 0 0
BITMAP
0381C700
0F87C780
1F8FCF80
1F0F8780
1E0F0200
1C0E0000
1C0E0000
FFFFFF80
FFFFFF80
FFFFFF80
1C0E0780
1C0E0780
1C0E0780
1C0E0780
1C0E0780
1C0E0780
1C0E0780
1C0E0780
1C0E0780
1C0E0780
1C0E0780
ENDCHAR
STARTCHAR FB04
ENCODING 64260
SWIDTH 972 0
DWIDTH 27 0
BBX 25 20 0 0
BITMAP
0783C780
0F87C780
1F8FC780
1E0F0780
1C0E0780
1C0E0780
FFFFFF80
FFFFFF80
FFFFFF80
1C0E0780
1C0E0780
1C0E0780
1C0E0780
1C0E0780
1C0E0780
1C0E0780
1C0E0780
1C0E0780
1C0E0780
1C0E0780
ENDCHAR
STARTCHAR FEFF
ENCODING 65279
SWIDTH 0 0
DWIDTH 0 0
BBX 0 0 0 0
BITMAP
ENDCHAR
ENDFONT
